<svg xmlns="http://www.w3.org/2000/svg" width="637.039" height="628.262" viewBox="0 0 637.039 628.262"><g id="Group_47" data-name="Group 47" transform="translate(-144.46 -269.67)"><path id="Path_149" d="M-479.171-159.046a27.2,27.2,0,0,1,12.778,2.811q8.689,4.856,7.411,10.989-.511,3.833-4.856,5.111a5.957,5.957,0,0,1-6.389-1.789q-3.578-5.367-11.5-4.345a1.041,1.041,0,0,0-.767.256,6.692,6.692,0,0,0-5.878,4.345,5.019,5.019,0,0,0,.511,4.345q3.067,2.045,9.967,1.789a27.247,27.247,0,0,1,6.134.511q8.178.767,13.289,8.178a15.369,15.369,0,0,1,3.067,9.967q.256,8.178-6.645,13.545a21.572,21.572,0,0,1-5.878,3.067q-13.545,4.345-24.023,0-8.434-4.089-9.967-9.712-1.022-4.345,3.322-6.9,4.089-2.556,7.411.256a2.974,2.974,0,0,1,.767.511q4.345,5.622,15.334,3.833,4.345-.256,5.878-3.322a3.846,3.846,0,0,0,0-3.834q-2.3-2.556-8.178-2.556-12.778.511-18.656-5.111a16.13,16.13,0,0,1-5.878-14.056,15.964,15.964,0,0,1,3.322-9.967q5.878-8.178,18.912-7.923Zm40.379-24.279a6.19,6.19,0,0,0-5.622,4.6,5.072,5.072,0,0,0-.511,2.3v1.022a6.514,6.514,0,0,0,3.322,5.878,6.332,6.332,0,0,0,6.9,0,6.514,6.514,0,0,0,3.322-5.878v-1.022a7.356,7.356,0,0,0-2.3-5.367A5.809,5.809,0,0,0-438.792-183.324Zm.511,24.534a5.787,5.787,0,0,0-5.878,4.089,5.362,5.362,0,0,0-.767,2.811v47.024a6.514,6.514,0,0,0,3.322,5.878,6.332,6.332,0,0,0,6.9,0,6.514,6.514,0,0,0,3.322-5.878V-151.89a6.634,6.634,0,0,0-2.045-4.856A6.122,6.122,0,0,0-438.281-158.79Zm32.712-15.845a6.421,6.421,0,0,0-4.089-6.389,5.69,5.69,0,0,0-2.556-.511,6.575,6.575,0,0,0-6.134,3.833,8.254,8.254,0,0,0-.511,3.067v70.025a6.07,6.07,0,0,0,3.833,5.878,7.5,7.5,0,0,0,2.811.511,6.255,6.255,0,0,0,6.134-3.833,6.837,6.837,0,0,0,.511-2.556Zm25.812,0a6.421,6.421,0,0,0-4.089-6.389,5.69,5.69,0,0,0-2.556-.511,6.575,6.575,0,0,0-6.134,3.833,8.254,8.254,0,0,0-.511,3.067v70.025a6.07,6.07,0,0,0,3.833,5.878,7.5,7.5,0,0,0,2.811.511,6.255,6.255,0,0,0,6.134-3.833,6.836,6.836,0,0,0,.511-2.556Zm61.08,22.745V-101.8q0,15.334-6.645,21.723-5.367,5.622-17.634,5.622A32.229,32.229,0,0,1-364.422-78.8a6.514,6.514,0,0,1-3.322-5.878,6.1,6.1,0,0,1,3.578-5.878,5.635,5.635,0,0,1,6.645.256q4.089,2.3,13.8,2.3h.511q6.645,0,8.434-1.789,2.3-2.045,2.3-10.734a23.651,23.651,0,0,1-15.334,2.045q-16.356-4.345-19.423-23.512a38.821,38.821,0,0,1-.511-6.389V-151.89a6.421,6.421,0,0,1,4.089-6.389,5.69,5.69,0,0,1,2.556-.511,6.935,6.935,0,0,1,5.111,2.045,6.634,6.634,0,0,1,2.045,4.856v23.512q0,10.989,5.622,15.078a8.87,8.87,0,0,0,5.111,1.789,11.558,11.558,0,0,0,5.622-1.789q3.578-1.533,4.6-4.089a21.5,21.5,0,0,0,.511-5.111v-29.39a7,7,0,0,1,3.578-6.134,6.61,6.61,0,0,1,6.645,0A7,7,0,0,1-318.676-151.89Zm13.034,46.769v-70.536a7.208,7.208,0,0,1,3.578-6.389,9.648,9.648,0,0,1,3.067-.511,6.561,6.561,0,0,1,4.856,1.789,6.935,6.935,0,0,1,2.045,5.111v19.423a24.779,24.779,0,0,1,10.734-2.556q12.523,0,19.167,8.945a22.548,22.548,0,0,1,5.367,15.334v29.39a6.143,6.143,0,0,1-3.322,6.134,6.609,6.609,0,0,1-6.645,0,6.633,6.633,0,0,1-3.578-6.134v-29.39q-1.022-8.689-6.134-10.223a12.583,12.583,0,0,0-4.856-.767q-6.389,0-8.434,4.089a20.318,20.318,0,0,0-2.3,6.9v29.39a6.369,6.369,0,0,1-4.856,6.645,7.1,7.1,0,0,1-7.156-2.045A6.819,6.819,0,0,1-305.642-105.121Zm106.316-.511V-131.7q-.767-12.012-8.434-18.912a25.1,25.1,0,0,0-4.345-3.067,20.69,20.69,0,0,0-9.712-2.556q-11.5,0-18.656,9.712-7.923,11.756-4.345,28.623,2.3,10.734,10.734,16.1a35.016,35.016,0,0,0,4.345,2.3q9.456,3.067,17.379-1.022a6.375,6.375,0,0,0,6.134,4.345,5.849,5.849,0,0,0,5.111-2.045Q-199.326-100.521-199.326-105.632Zm-23-36.8a8.815,8.815,0,0,1,7.923,4.6q1.789,3.322,1.533,15.078-.767,8.434-5.878,10.478a14.073,14.073,0,0,1-4.856.256,8.742,8.742,0,0,1-7.156-5.622,4.537,4.537,0,0,1-.511-2.045,30.227,30.227,0,0,1,0-15.59,8.206,8.206,0,0,1,6.134-6.645A8.955,8.955,0,0,1-222.327-142.434Zm59.547-16.356a25.989,25.989,0,0,1,14.312,4.089,7.117,7.117,0,0,1,3.322,6.134,7.17,7.17,0,0,1-4.089,5.878,6.268,6.268,0,0,1-6.645-.767,14.247,14.247,0,0,0-6.9-1.533,12.506,12.506,0,0,0-6.389,1.789q-5.622,3.833-5.622,14.567v.256q0,11.5,5.367,15.078a12.111,12.111,0,0,0,6.645,1.789,12.6,12.6,0,0,0,6.9-1.789,5.66,5.66,0,0,1,6.645-.767,7.17,7.17,0,0,1,4.089,5.878,6.164,6.164,0,0,1-3.322,5.878,24.875,24.875,0,0,1-14.312,4.345,23.558,23.558,0,0,1-13.8-4.089q-11.756-7.411-11.756-26.579,0-16.356,9.967-24.534A22.767,22.767,0,0,1-162.78-158.79Zm34.246-24.79a6.634,6.634,0,0,1,4.856,2.045,6.634,6.634,0,0,1,2.045,4.856v37.568l21.723-20.7a6.712,6.712,0,0,1,7.667-1.278,8.009,8.009,0,0,1,2.045,1.533,6.368,6.368,0,0,1,1.278,7.411,26.928,26.928,0,0,1-1.533,2.3L-106.3-135.022l19.167,26.068a6.155,6.155,0,0,1,.256,7.667A8.9,8.9,0,0,1-88.666-99.5q-3.578,2.811-7.667.256a5.072,5.072,0,0,1-1.789-1.533l-18.145-24.79-5.367,5.111v15.59a6.514,6.514,0,0,1-3.322,5.878,6.332,6.332,0,0,1-6.9,0,6.514,6.514,0,0,1-3.322-5.878V-176.68a6.255,6.255,0,0,1,3.834-6.134A5.362,5.362,0,0,1-128.534-183.58Zm69.514,24.534a27.2,27.2,0,0,1,12.778,2.811q8.689,4.856,7.411,10.989-.511,3.833-4.856,5.111a5.957,5.957,0,0,1-6.389-1.789q-3.578-5.367-11.5-4.345a1.041,1.041,0,0,0-.767.256,6.692,6.692,0,0,0-5.878,4.345,5.019,5.019,0,0,0,.511,4.345q3.067,2.045,9.967,1.789a27.247,27.247,0,0,1,6.134.511q8.178.767,13.289,8.178a15.369,15.369,0,0,1,3.067,9.967Q-35-108.7-41.9-103.332a21.572,21.572,0,0,1-5.878,3.067q-13.545,4.345-24.023,0-8.434-4.089-9.967-9.712-1.022-4.345,3.322-6.9,4.089-2.556,7.411.256a2.973,2.973,0,0,1,.767.511q4.345,5.622,15.334,3.833,4.345-.256,5.878-3.322a3.846,3.846,0,0,0,0-3.834q-2.3-2.556-8.178-2.556-12.778.511-18.656-5.111a16.13,16.13,0,0,1-5.878-14.056,15.964,15.964,0,0,1,3.322-9.967q5.878-8.178,18.912-7.923Z" data-name="Path 149" transform="translate(734.656 972.068)"/><path id="Path_156" fill="#ffb029" d="M0,0H226.749V41.925s38.612-8.053,38.612,16.19-38.612,18.059-38.612,18.059V169.4s-33.668-4.971-34.072,16.106,34.072,22.1,34.072,22.1v19.144H46.022s7.257,31.28-12,30.337-8.081-30.337-8.081-30.337H0Z" data-name="Path 156" transform="translate(235.868 269.67)"/><path id="Path_87" d="M43.713,74.118c25.414-.174,49.3-5.336,49.3,6.376s-26.045,26.837-49.3,26.837S0,92.206,0,80.494,18.3,74.293,43.713,74.118Z" data-name="Path 87" opacity=".15" transform="translate(307.011 379.463)"/><path id="Path_157" fill="#00ffa9" d="M-35.653,0H191.1V226.749h-46.5s12.265,38.486-15.143,36.2-14.258-36.2-14.258-36.2H-35.653V200.5s-36.451,3.86-36.047-15,36.047-7.937,36.047-7.937V83.076S-.457,86.8-1.982,56.259s-33.672-22.45-33.672-22.45Z" data-name="Path 157" transform="translate(508.326 269.67)"/><path id="Path_158" fill="#9747ff" d="M-50.512,0H90.32S85.9,34.221,115.061,34.221,140.3,0,140.3,0h35.936V226.749H-50.512v-23.2s-51.939,12.967-51.064-13.969,51.064-15.605,51.064-15.605Z" data-name="Path 158" transform="translate(523.185 506.475)"/><path id="Path_159" fill="#ff4747" d="M0,0H17.47S10.585,23.918,34.424,24.793,52.536,0,52.536,0H226.749V166.223s-49.09-5.8-48.214,23.355,48.214,22.746,48.214,22.746v14.425H0Z" data-name="Path 159" transform="translate(235.868 506.475)"/><path id="Path_84" fill="none" stroke="#000" stroke-linecap="round" stroke-width="3" d="M14437.607,4848.611c0,14.377-2.5,43.131,0,57.508s7.484,0,9.98,0" data-name="Path 84" transform="translate(-14149.6 -4425.792)"/><path id="Path_88" fill="none" stroke="#000" stroke-linecap="round" stroke-width="3" d="M14437.607,4848.611c0,9.389-2.5,28.167,0,37.557s7.484,0,9.98,0" data-name="Path 88" transform="translate(-14194.849 -4469.03)"/><path id="Path_89" fill="none" stroke="#000" stroke-linecap="round" stroke-width="3" d="M14437.607,4848.611c0,9.389-2.5,28.167,0,37.557s7.484,0,9.98,0" data-name="Path 89" transform="translate(-13966.592 -4479.085)"/><path id="Path_85" fill="none" stroke="#000" stroke-linecap="round" stroke-width="3" d="M14437.607,4848.611c0,14.377-2.5,43.131,0,57.508s7.484,0,9.98,0" data-name="Path 85" transform="translate(-14036.477 -4427.3)"/><g id="Path_77" fill="#9747ff" data-name="Path 77"><path stroke="none" d="M 118.1453399658203 164.5656433105469 C 110.5800094604492 164.5656433105469 102.8793792724609 163.9599456787109 95.25730895996094 162.7654113769531 C 87.98760986328125 161.6260833740234 80.705810546875 159.9387817382812 73.61421203613281 157.7504425048828 C 66.81477355957031 155.6522369384766 60.14197540283203 153.0794067382812 53.78114318847656 150.1034393310547 C 47.63144302368164 147.2262115478516 41.7587776184082 143.9662475585938 36.32627487182617 140.4140472412109 C 25.73047637939453 133.4856414794922 16.91250991821289 125.5013427734375 10.82570934295654 117.3242797851562 C 7.797442436218262 113.2561111450195 5.465409278869629 109.172607421875 3.894376039505005 105.1872406005859 C 2.305576086044312 101.1568069458008 1.500009298324585 97.23554229736328 1.500009298324585 93.53234100341797 C 1.500009298324585 86.21430969238281 4.246842861175537 81.45307922363281 10.14444255828857 78.54837799072266 C 12.96154308319092 77.16087341308594 16.49481010437012 76.18167877197266 20.94607543945312 75.5548095703125 C 25.00257682800293 74.98354339599609 29.86284255981445 74.70584106445312 35.80454254150391 74.70584106445312 C 44.66794204711914 74.70584106445312 54.77384185791016 75.30274200439453 66.47550964355469 75.99391174316406 C 80.89981079101562 76.84590911865234 97.24864196777344 77.81154632568359 114.8952407836914 77.81154632568359 C 115.9840087890625 77.81154632568359 117.0809783935547 77.80780792236328 118.1556396484375 77.80044555664062 C 135.1005096435547 77.68417358398438 151.4699401855469 76.76747894287109 167.3004150390625 75.88094329833984 C 181.4810485839844 75.08680725097656 194.875244140625 74.33674621582031 206.4660491943359 74.33674621582031 C 221.4013061523438 74.33674621582031 231.580810546875 75.60447692871094 238.5015106201172 78.32644653320312 C 242.3233032226562 79.82957458496094 245.0952758789062 81.744140625 246.9757080078125 84.17961120605469 C 248.9330444335938 86.71460723876953 249.8845367431641 89.77394104003906 249.8845367431641 93.53234100341797 C 249.8845367431641 97.16854095458984 248.8777465820312 101.0514755249023 246.8920745849609 105.0732803344727 C 244.9411163330078 109.0248794555664 242.0493469238281 113.1073455810547 238.2971038818359 117.2072448730469 C 230.9010467529297 125.2886428833008 220.2869720458984 133.2943725585938 207.6023712158203 140.3590087890625 C 194.6923828125 147.5491790771484 179.9857025146484 153.5592041015625 165.0723419189453 157.7394104003906 C 157.2607116699219 159.9289703369141 149.3950042724609 161.6193695068359 141.6937408447266 162.7636108398438 C 133.6456756591797 163.9593505859375 125.7228393554688 164.5656433105469 118.1453399658203 164.5656433105469 Z" transform="translate(232.852 280.714)"/><path stroke="none" d="M 206.4660339355469 75.83674621582031 C 194.9172058105469 75.83674621582031 181.5433654785156 76.58567810058594 167.3843078613281 77.37861633300781 C 151.5357666015625 78.26614379882812 135.1476440429688 79.18388366699219 118.1658782958984 79.3004150390625 C 117.0870361328125 79.30781555175781 115.9866485595703 79.31153869628906 114.8952484130859 79.31153869628906 C 97.20437622070312 79.31153869628906 80.83207702636719 78.34451293945312 66.38706970214844 77.49131774902344 C 54.7091064453125 76.80154418945312 44.62367248535156 76.20584106445312 35.80455017089844 76.20584106445312 C 29.93354797363281 76.20584106445312 25.14173889160156 76.47874450683594 21.1552734375 77.04017639160156 C 16.86410522460938 77.64447021484375 13.479248046875 78.57797241210938 10.80717468261719 79.89404296875 C 8.170135498046875 81.19281005859375 6.27410888671875 82.8499755859375 5.01068115234375 84.960205078125 C 3.65771484375 87.22004699707031 3.000015258789062 90.02401733398438 3.000015258789062 93.5323486328125 C 3.000015258789062 97.04644775390625 3.77044677734375 100.7826461791992 5.289871215820312 104.6371459960938 C 6.812347412109375 108.4993743896484 9.0797119140625 112.4666137695312 12.02894592285156 116.4286422729492 C 18.01161193847656 124.4657745361328 26.69734191894531 132.32568359375 37.14717102050781 139.1585998535156 C 42.52064514160156 142.6722106933594 48.33097839355469 145.8974456787109 54.41680908203125 148.7447814941406 C 60.71517944335938 151.6915435791016 67.32290649414062 154.2392425537109 74.05650329589844 156.3171081542969 C 81.07957458496094 158.4843444824219 88.29067993164062 160.1552429199219 95.48957824707031 161.2834777832031 C 103.0350494384766 162.4660339355469 110.6575469970703 163.0656433105469 118.1453399658203 163.0656433105469 C 125.6493072509766 163.0656433105469 133.4979858398438 162.46484375 141.4732666015625 161.2798767089844 C 149.1125793457031 160.1448669433594 156.9161987304688 158.4677429199219 164.6675109863281 156.2950744628906 C 179.4694061279297 152.1461486816406 194.0636749267578 146.182373046875 206.8725433349609 139.0485534667969 C 219.4181365966797 132.0613403320312 229.9019470214844 124.1585464477539 237.1905822753906 116.1945419311523 C 240.8472442626953 112.1990432739258 243.6587829589844 108.2339096069336 245.5470733642578 104.4092407226562 C 247.4298706054688 100.5957107543945 248.3845367431641 96.93620300292969 248.3845367431641 93.5323486328125 C 248.3845367431641 90.11824035644531 247.5353393554688 87.35881042480469 245.7884368896484 85.0963134765625 C 244.0782470703125 82.88137817382812 241.5150756835938 81.12350463867188 237.9524688720703 79.72235107421875 C 231.2123107910156 77.0714111328125 221.207275390625 75.83671569824219 206.4660339355469 75.83674621582031 M 206.4660339355469 72.83673095703125 C 233.4666900634766 72.83673095703125 251.3845367431641 76.85496520996094 251.3845367431641 93.5323486328125 C 251.3845367431641 125.1869430541992 180.9914855957031 166.0656433105469 118.1453399658203 166.0656433105469 C 55.29917907714844 166.0656433105469 1.52587890625e-05 125.1869430541992 1.52587890625e-05 93.5323486328125 C 1.52587890625e-05 77.0887451171875 13.34959411621094 73.20584106445312 35.80453491210938 73.20584106445312 C 55.89022827148438 73.20584106445312 83.26580810546875 76.31155395507812 114.8952331542969 76.31155395507812 C 115.9754333496094 76.31155395507812 117.0553283691406 76.30795288085938 118.1453399658203 76.30047607421875 C 150.6446228027344 76.07746887207031 182.2179870605469 72.83674621582031 206.4660339355469 72.83673095703125 Z" transform="translate(232.852 280.714)"/></g><path id="Path_78" fill="#340078" d="M76.314,91.7c44.368-.273,86.064-25.593,86.064-7.265s-45.469,42-86.064,42S0,102.768,0,84.44,31.946,91.978,76.314,91.7Z" data-name="Path 78" transform="translate(277.355 315.529)"/><g id="Path_68" fill="#fff" data-name="Path 68"><path stroke="none" d="M 19.1058235168457 37.82010269165039 C 16.08822250366211 37.82010269165039 13.38293266296387 37.17791366577148 11.06509304046631 35.91136169433594 C 8.949023246765137 34.75506210327148 7.131213188171387 33.06792068481445 5.662152767181396 30.89680290222168 C 2.978152990341187 26.93010139465332 1.500002980232239 21.38611221313477 1.500002980232239 15.28609275817871 C 1.500002980232239 12.29827213287354 2.084832906723022 9.400631904602051 3.238252878189087 6.673642158508301 C 4.352643013000488 4.038922309875488 5.94830322265625 1.67239236831665 7.980903148651123 -0.3602176904678345 C 10.01351261138916 -2.392827749252319 12.38004302978516 -3.988487720489502 15.0147533416748 -5.102877616882324 C 17.74174308776855 -6.256297588348389 20.63938331604004 -6.841127872467041 23.6272029876709 -6.841127872467041 C 26.61502265930176 -6.841127872467041 29.51266288757324 -6.256297588348389 32.23965454101562 -5.102877616882324 C 34.87436294555664 -3.988487720489502 37.24089431762695 -2.392827749252319 39.27350234985352 -0.3602176904678345 C 41.30610275268555 1.67239236831665 42.90176391601562 4.038922309875488 44.01615142822266 6.673642158508301 C 45.16957473754883 9.400631904602051 45.75440216064453 12.29827213287354 45.75440216064453 15.28609275817871 C 45.75440216064453 18.46699142456055 45.3563117980957 21.18185234069824 44.53739166259766 23.58580207824707 C 43.70823287963867 26.0197925567627 42.46871185302734 28.06821250915527 40.74799346923828 29.84812164306641 C 37.1660041809082 33.55334091186523 31.48227310180664 36.03509140014648 23.37203216552734 37.4351806640625 C 21.89250373840332 37.69060134887695 20.45714378356934 37.82010269165039 19.1058235168457 37.82010269165039 Z" transform="translate(358.518 354.106)"/><path stroke="none" d="M 19.1058235168457 36.32010269165039 C 20.37187385559082 36.32010269165039 21.72137260437012 36.19795227050781 23.11685371398926 35.95705413818359 C 30.90225219726562 34.61304092407227 36.31668472290039 32.27376174926758 39.66955184936523 28.8055419921875 C 41.23333358764648 27.18797302246094 42.36117172241211 25.32236289978027 43.11751174926758 23.10210227966309 C 43.88252258300781 20.85643196105957 44.25440216064453 18.2997932434082 44.25440216064453 15.28609275817871 C 44.25440216064453 12.50011253356934 43.70944213867188 9.799062728881836 42.6346435546875 7.257972240447998 C 41.59588241577148 4.80205249786377 40.10817337036133 2.595782279968262 38.21283340454102 0.7004423141479492 C 36.3175048828125 -1.194887638092041 34.11123275756836 -2.682607650756836 31.65532302856445 -3.721367597579956 C 29.11423301696777 -4.796157836914062 26.41318321228027 -5.341127872467041 23.6272029876709 -5.341127872467041 C 20.84122276306152 -5.341127872467041 18.14017295837402 -4.796157836914062 15.59908294677734 -3.721367597579956 C 13.14317321777344 -2.682607650756836 10.93690299987793 -1.194887638092041 9.041572570800781 0.7004423141479492 C 7.146233081817627 2.595782279968262 5.658523082733154 4.80205249786377 4.619762897491455 7.257972240447998 C 3.544962882995605 9.799062728881836 3.000003099441528 12.50011253356934 3.000003099441528 15.28609275817871 C 3.000003099441528 21.08961296081543 4.386642932891846 26.3350715637207 6.904482841491699 30.05619239807129 C 9.716873168945312 34.21262359619141 13.82199287414551 36.32010269165039 19.1058235168457 36.32010269165039 M 19.10581970214844 39.32010650634766 C 5.417595863342285 39.32010650634766 2.987670995935332e-06 27.11091613769531 2.987670995935332e-06 15.28609275817871 C 2.987670995935332e-06 2.237142324447632 10.5782527923584 -8.341127395629883 23.6272029876709 -8.341127395629883 C 36.67615127563477 -8.341127395629883 47.25440216064453 2.237142324447632 47.25440216064453 15.28609275817871 C 47.25440216064453 28.33505249023438 40.65556335449219 35.97367095947266 23.6272029876709 38.91332244873047 C 22.02975463867188 39.18909454345703 20.52285957336426 39.32010650634766 19.10581970214844 39.32010650634766 Z" transform="translate(358.518 354.106)"/></g><g id="Path_79" fill="#fff" data-name="Path 79"><path stroke="none" d="M 18.86133766174316 37.61117172241211 C 18.86098480224609 37.61117172241211 18.86069297790527 37.61117172241211 18.86034202575684 37.61117172241211 C 12.31908130645752 37.61101913452148 7.84498119354248 36.31240844726562 5.182381153106689 33.64113998413086 C 1.44788122177124 29.89446067810059 1.468371152877808 23.55410003662109 1.490061163902283 16.84145927429199 C 1.491741180419922 16.32444000244141 1.493411183357239 15.80570030212402 1.493411183357239 15.28610038757324 C 1.493411183357239 12.29827976226807 2.078241109848022 9.400629997253418 3.231661081314087 6.673640251159668 C 4.346051216125488 4.03892993927002 5.94171142578125 1.672399997711182 7.974321365356445 -0.3602099716663361 C 10.00693130493164 -2.392819881439209 12.37345123291016 -3.988480091094971 15.00817108154297 -5.102869987487793 C 17.73515129089355 -6.256289958953857 20.6328010559082 -6.841119766235352 23.6206111907959 -6.841119766235352 C 26.60843086242676 -6.841119766235352 29.50607109069824 -6.256289958953857 32.23306274414062 -5.102869987487793 C 34.86777114868164 -3.988480091094971 37.23430252075195 -2.392819881439209 39.26691055297852 -0.3602099716663361 C 41.29951095581055 1.672399997711182 42.89517211914062 4.03892993927002 44.00955963134766 6.673640251159668 C 45.16298294067383 9.400629997253418 45.74781036376953 12.29827976226807 45.74781036376953 15.28610038757324 C 45.74781036376953 15.81186008453369 45.74953079223633 16.33049964904785 45.751220703125 16.84186935424805 C 45.77089309692383 22.77890014648438 45.78643035888672 27.46833038330078 43.15702056884766 30.82342910766602 C 41.7855110168457 32.57347106933594 39.70794296264648 33.93473052978516 36.80559158325195 34.98498916625977 C 33.5013313293457 36.18069076538086 29.1502513885498 36.97650146484375 23.50371170043945 37.41788101196289 C 21.86300277709961 37.54613876342773 20.30104446411133 37.61117172241211 18.86133766174316 37.61117172241211 Z" transform="translate(311.264 354.106)"/><path stroke="none" d="M 18.86134147644043 36.11117172241211 C 20.26219177246094 36.11117172241211 21.78478050231934 36.04766845703125 23.38682174682617 35.92243957519531 C 28.89708137512207 35.4917106628418 33.11944961547852 34.72369003295898 36.29518127441406 33.57450103759766 C 38.92518997192383 32.6227912902832 40.78353118896484 31.42024993896484 41.97640228271484 29.89817047119141 C 44.28472137451172 26.9527702331543 44.26993942260742 22.49304962158203 44.2512321472168 16.84683990478516 C 44.24953079223633 16.33383941650391 44.24781036376953 15.8135404586792 44.24781036376953 15.28610038757324 C 44.24781036376953 12.50012016296387 43.70285034179688 9.799070358276367 42.6280517578125 7.257969856262207 C 41.58929061889648 4.802050113677979 40.10158157348633 2.595789909362793 38.20624160766602 0.7004500031471252 C 36.3109130859375 -1.194890022277832 34.10464096069336 -2.682600021362305 31.64873123168945 -3.721359968185425 C 29.10764122009277 -4.796159744262695 26.40659141540527 -5.341119766235352 23.6206111907959 -5.341119766235352 C 20.83463096618652 -5.341119766235352 18.13359069824219 -4.796159744262695 15.59249114990234 -3.721359968185425 C 13.13658142089844 -2.682600021362305 10.93031120300293 -1.194890022277832 9.034980773925781 0.7004500031471252 C 7.139641284942627 2.595789909362793 5.651931285858154 4.802060127258301 4.613171100616455 7.257969856262207 C 3.538371086120605 9.799070358276367 2.993411302566528 12.50012016296387 2.993411302566528 15.28610038757324 C 2.993411302566528 15.80731964111328 2.9917311668396 16.32768058776855 2.990061283111572 16.84630966186523 C 2.978981256484985 20.27277946472168 2.968521118164062 23.50922966003418 3.440091133117676 26.32632064819336 C 3.912531137466431 29.14863014221191 4.803740978240967 31.1364803314209 6.244771003723145 32.58221054077148 C 7.33233118057251 33.67330932617188 8.759840965270996 34.48759841918945 10.60889148712158 35.07160186767578 C 12.79269123077393 35.7613410949707 15.56889152526855 36.11109924316406 18.8609619140625 36.11117172241211 L 18.86134147644043 36.11117172241211 M 18.86031150817871 39.11116409301758 C -0.9256712198257446 39.11072540283203 -0.006588809192180634 27.43267822265625 -0.006588809192180634 15.28610038757324 C -0.006588809192180634 2.237139940261841 10.57167148590088 -8.341119766235352 23.6206111907959 -8.341119766235352 C 36.66955947875977 -8.341119766235352 47.24781036376953 2.237139940261841 47.24781036376953 15.28610038757324 C 47.24781036376953 28.33505058288574 48.30981063842773 36.98337936401367 23.6206111907959 38.9133186340332 C 21.91328239440918 39.04677963256836 20.33021545410156 39.11119842529297 18.86031150817871 39.11116409301758 Z" transform="translate(311.264 354.106)"/></g><ellipse id="Ellipse_20" cx="7.793" cy="7.793" data-name="Ellipse 20" rx="7.793" ry="7.793" transform="translate(368.855 371.932)"/><ellipse id="Ellipse_21" cx="7.793" cy="7.793" data-name="Ellipse 21" rx="7.793" ry="7.793" transform="translate(322.533 373.441)"/><path id="Path_69" fill="#fff" d="M2.469,0A2.469,2.469,0,0,0,0,2.469C0,3.832,1.445,5.7,2.469,4.937S4.937,3.832,4.937,2.469A2.469,2.469,0,0,0,2.469,0Z" data-name="Path 69" transform="translate(371.678 376.604)"/><path id="Path_80" fill="#fff" d="M2.469,0A2.469,2.469,0,0,1,4.937,2.469c0,1.363-1.445,3.233-2.469,2.469S0,3.832,0,2.469A2.469,2.469,0,0,1,2.469,0Z" data-name="Path 80" transform="translate(330.36 378.112)"/><path id="Path_81" fill="#ffc2c2" d="M15.645.007A97.389,97.389,0,0,0,1.175.928c-5.087.52,7.6,14.834,14.068,14.834S34.493,1.777,30.392,1.1A86.7,86.7,0,0,0,15.645.007Z" data-name="Path 81" transform="translate(369.048 442.013) rotate(180)"/><path id="Path_143" fill="#00c5ff" stroke="#000" stroke-width="3" d="M11905.68,4592.135c6.625-6.479-4.2-19.435,0-25.914s12.594-6.479,16.791,0-5.993,19.436,0,25.914,17.98,6.479,23.973,0-5.823-19.435,0-25.914,17.471-6.479,23.295,0-4.854,19.436,0,25.914,11.189,9.357,19.41,0,27.492-102.419,0-136.559-82.475-22.809-109.965,0,0,57.094,0,91.233-6.625,33.994,0,45.326S11899.056,4598.614,11905.68,4592.135Z" data-name="Path 143" transform="translate(-11348.965 -4143.473)"/><path id="Path_144" d="M26.183.009C60.492.68,51.228,35.79,51.228,49.622a25.044,25.044,0,0,1-50.088,0C1.139,35.79-8.125-.662,26.183.009Z" data-name="Path 144" opacity=".15" transform="translate(612.463 404.85) rotate(180)"/><g id="Path_145" fill="#fff" data-name="Path 145"><path stroke="none" d="M 16.99885368347168 28.06010437011719 C 12.85895347595215 28.06010437011719 8.966854095458984 26.44794464111328 6.03951358795166 23.52059364318848 C 3.112163782119751 20.59325408935547 1.500003695487976 16.70114326477051 1.500003695487976 12.56124401092529 C 1.500003695487976 8.199443817138672 2.490663766860962 4.288144111633301 4.289493560791016 1.547854065895081 C 6.377913475036621 -1.633586049079895 9.50571346282959 -3.246706008911133 13.58603382110596 -3.246706008911133 C 14.57919406890869 -3.246706008911133 15.64143371582031 -3.150085926055908 16.74324417114258 -2.959546089172363 C 22.62972450256348 -1.941555976867676 26.6883544921875 -0.1899459958076477 29.15106391906738 2.395374059677124 C 31.43428421020508 4.792263984680176 32.49770355224609 8.022534370422363 32.49770355224609 12.56124401092529 C 32.49770355224609 16.70114326477051 30.88554382324219 20.59325408935547 27.95819282531738 23.52059364318848 C 25.03085327148438 26.44794464111328 21.13875389099121 28.06010437011719 16.99885368347168 28.06010437011719 Z" transform="translate(569.259 315.272)"/><path stroke="none" d="M 13.58603286743164 -1.746707916259766 C 9.993062973022461 -1.746707916259766 7.362314224243164 -0.3997974395751953 5.543462753295898 2.371002197265625 C 3.903284072875977 4.869592666625977 3.000003814697266 8.488561630249023 3.000003814697266 12.56125164031982 C 3.000003814697266 16.30048179626465 4.456132888793945 19.81590270996094 7.100173950195312 22.45993232727051 C 9.744203567504883 25.10397148132324 13.25962448120117 26.56010246276855 16.99885368347168 26.56010246276855 C 20.73808288574219 26.56010246276855 24.25350379943848 25.10397148132324 26.89753341674805 22.45993232727051 C 29.54157257080078 19.81590270996094 30.99770355224609 16.30048179626465 30.99770355224609 12.56125164031982 C 30.99770355224609 8.431941986083984 30.06580352783203 5.530412673950195 28.06496429443359 3.429962158203125 C 25.83235359191895 1.086202621459961 22.04537391662598 -0.5203380584716797 16.48762321472168 -1.481487274169922 C 15.47000312805176 -1.657478332519531 14.4937629699707 -1.746707916259766 13.58603286743164 -1.746707916259766 M 13.58603286743164 -4.7467041015625 C 14.65019989013672 -4.7467041015625 15.78559303283691 -4.647424697875977 16.99885368347168 -4.43760871887207 C 29.63588333129883 -2.252187728881836 33.99770355224609 3.173042297363281 33.99770355224609 12.56125164031982 C 33.99770355224609 21.949462890625 26.38706398010254 29.56010246276855 16.99885368347168 29.56010246276855 C 7.61064338684082 29.56010246276855 3.814697265625e-06 21.949462890625 3.814697265625e-06 12.56125164031982 C 3.814697265625e-06 4.07438850402832 3.566076278686523 -4.7467041015625 13.58603286743164 -4.7467041015625 Z" transform="translate(569.259 315.272)"/></g><circle id="Ellipse_34" cx="5.607" cy="5.607" r="5.607" data-name="Ellipse 34" transform="translate(576.102 327.226)"/><path id="Path_160" d="M22.227.028c29.124,2.083,21.26,111.081,21.26,154.021S33.969,231.8,22.227,231.8.967,196.989.967,154.049-6.9-2.055,22.227.028Z" data-name="Path 160" opacity=".22" transform="translate(743.041 654.36) rotate(90)"/><path id="Path_161" d="M9.143.007c11.98.525,8.745,28.008,8.745,38.835s-3.915,19.6-8.745,19.6S.4,49.668.4,38.842-2.837-.518,9.143.007Z" data-name="Path 161" opacity=".22" transform="translate(614.635 475.889) rotate(90)"/><path id="Path_146" fill="#fff" d="M1.776,0A1.776,1.776,0,0,1,3.552,1.776c0,.981-1.04,2.326-1.776,1.776S0,2.757,0,1.776A1.776,1.776,0,0,1,1.776,0Z" data-name="Path 146" transform="translate(581.732 330.587)"/><g id="Group_30" data-name="Group 30" transform="translate(144.46 477.088)"><ellipse id="Ellipse_28" cx="80.694" cy="16.089" data-name="Ellipse 28" opacity=".22" rx="80.694" ry="16.089" transform="matrix(0.998, 0.07, -0.07, 0.998, 132.965, 117.067)"/><g id="Path_91" fill="#fff" data-name="Path 91"><path stroke="none" d="M 124.9371719360352 143.4979553222656 C 117.589111328125 143.4979553222656 105.2854080200195 142.249755859375 89.35617065429688 139.8882751464844 C 75.01587677001953 137.7623596191406 57.85325622558594 134.7402191162109 41.02978897094727 131.3785705566406 C 24.44528770446777 128.0646667480469 8.873081207275391 124.5604553222656 -2.818183422088623 121.5114288330078 C -20.13138961791992 116.9962768554688 -23.80433082580566 114.8522796630859 -24.57988929748535 114.1400756835938 C -26.64030075073242 112.2478637695312 -28.98074150085449 109.3464813232422 -31.34818267822266 105.74951171875 C -33.62944793701172 102.2834854125977 -35.78544998168945 98.40866088867188 -37.58306503295898 94.54398345947266 C -39.41886138916016 90.59722137451172 -40.73421478271484 86.96919250488281 -41.38689041137695 84.05213165283203 C -42.15728759765625 80.60906219482422 -41.77585601806641 79.17374420166016 -41.50244903564453 78.641357421875 C -41.12631607055664 78.54795074462891 -40.02541351318359 78.36878204345703 -37.115478515625 78.36878204345703 C -29.31421279907227 78.36878204345703 -13.23438930511475 79.59830474853516 9.385640144348145 81.92442321777344 C 30.1043758392334 84.05504608154297 55.1845817565918 86.99722290039062 80.00628662109375 90.20895385742188 C 105.3022842407227 93.48207092285156 128.6541137695312 96.82218933105469 145.7600860595703 99.61404418945312 C 155.0076751708984 101.1233367919922 162.4062805175781 102.465217590332 167.7504119873047 103.602424621582 C 175.5060272216797 105.2527847290039 176.9117431640625 106.059440612793 177.1353759765625 106.2275085449219 C 177.25341796875 106.3558883666992 177.3190460205078 106.4990158081055 177.2896423339844 106.7831878662109 C 177.2355804443359 107.3056335449219 176.8219604492188 108.5272521972656 174.6590881347656 110.8391036987305 C 173.0401458740234 112.5695724487305 170.7706146240234 114.5750732421875 167.7208404541016 116.9702758789062 C 162.0458679199219 121.4271926879883 154.6976470947266 126.3982772827148 148.2144317626953 130.7841949462891 C 140.9239959716797 135.7162170410156 134.6277313232422 139.9756622314453 131.99072265625 142.5903625488281 C 131.9533386230469 142.6274261474609 131.005615234375 143.4979553222656 124.9371719360352 143.4979553222656 Z" transform="translate(62.18 107.807)"/><path stroke="none" d="M -37.11553955078125 79.86874389648438 C -38.7174072265625 79.86874389648438 -39.71427917480469 79.92298889160156 -40.31901550292969 79.97976684570312 C -40.38838195800781 80.71763610839844 -40.33186340332031 82.0819091796875 -39.796142578125 84.26547241210938 C -39.09764099121094 87.11238098144531 -37.78520202636719 90.61175537109375 -36.000732421875 94.38525390625 C -32.32936096191406 102.1488723754883 -27.44813537597656 109.4694366455078 -23.56532287597656 113.0352478027344 C -23.32778930664062 113.2524032592773 -20.71644592285156 115.2945938110352 -2.417694091796875 120.0657196044922 C 9.248672485351562 123.1075286865234 24.79011535644531 126.6042175292969 41.34370422363281 129.9116516113281 C 58.14048767089844 133.2676544189453 75.27298736572266 136.2842712402344 89.58526611328125 138.4058532714844 C 105.4384231567383 140.7558135986328 117.6628952026367 141.9979400634766 124.9371109008789 141.9979400634766 C 129.3611297607422 141.9979400634766 130.7648468017578 141.5269165039062 131.0615692138672 141.400634765625 C 133.8638305664062 138.6813354492188 140.1324768066406 134.440673828125 147.3739013671875 129.5418395996094 C 153.8200225830078 125.1810302734375 161.1262054443359 120.2383422851562 166.7534790039062 115.8226852416992 C 169.6986389160156 113.5116577148438 171.97802734375 111.5028457641602 173.5283660888672 109.8520584106445 C 174.7680816650391 108.531982421875 175.332763671875 107.6616668701172 175.588623046875 107.1617660522461 C 174.539306640625 106.7731018066406 172.08056640625 106.0317840576172 166.4558563232422 104.8630599975586 C 160.9500122070312 103.7190322875977 153.4489898681641 102.3768768310547 144.1611785888672 100.8739013671875 C 126.9297027587891 98.08543395996094 103.6429901123047 94.77006530761719 78.59070587158203 91.53852844238281 C 53.96408081054688 88.36190795898438 29.14389038085938 85.4581298828125 8.702301025390625 83.36212158203125 C -13.58638000488281 81.07675170898438 -29.42994689941406 79.86874389648438 -37.11553955078125 79.86874389648438 M -37.11552429199219 76.86875915527344 C -3.557266235351562 76.86875915527344 172.5301208496094 99.32054901123047 178.1939544677734 105.1639709472656 C 184.3960876464844 111.5627212524414 140.8515472412109 135.9168395996094 133.0468597412109 143.6555023193359 C 132.1127166748047 144.5817413330078 129.2539215087891 144.9979248046875 124.937126159668 144.9979248046875 C 93.18748474121094 144.9979248046875 -17.67276000976562 122.5197830200195 -25.594482421875 115.244873046875 C -34.59326171875 106.980842590332 -46.53892517089844 82.57150268554688 -42.55410766601562 77.51091003417969 C -42.208251953125 77.07168579101562 -40.304931640625 76.86875915527344 -37.11552429199219 76.86875915527344 Z" transform="translate(62.18 107.807)"/></g><g id="Path_77-2" fill="#f9ff47" data-name="Path 77"><path stroke="none" d="M 54.32889175415039 41.37113571166992 C 47.56103134155273 41.37113571166992 40.75177001953125 40.32884216308594 34.09026336669922 38.27319717407227 C 28.02330780029297 36.40102767944336 22.16477012634277 33.67755126953125 17.14798545837402 30.39716720581055 C 12.3543701171875 27.26272010803223 8.370862007141113 23.65835189819336 5.628108501434326 19.97372055053711 C 2.927477836608887 16.34567451477051 1.500000834465027 12.72975158691406 1.500000834465027 9.516843795776367 C 1.500000834465027 6.45421314239502 2.586493253707886 4.55332088470459 5.02287769317627 3.353351593017578 C 7.355031490325928 2.204720973968506 10.99072360992432 1.669736266136169 16.46464729309082 1.669736266136169 C 20.51655387878418 1.669736266136169 25.15266227722168 1.943567037582397 30.52081680297852 2.26064395904541 C 37.16497039794922 2.653090000152588 44.69560241699219 3.097890138626099 52.83424758911133 3.097890138626099 C 53.33679962158203 3.097890138626099 53.84312438964844 3.096167087554932 54.33918380737305 3.092767000198364 C 62.15115356445312 3.039151668548584 69.68869018554688 2.617043972015381 76.97806549072266 2.208843946456909 C 83.48735809326172 1.844320893287659 89.63565063476562 1.50001323223114 94.94298553466797 1.50001323223114 C 101.7061386108398 1.50001323223114 106.2929382324219 2.065120935440063 109.3778762817383 3.278444051742554 C 110.9953079223633 3.914582490921021 112.1572189331055 4.710336208343506 112.9299697875977 5.711166858673096 C 113.7163848876953 6.729690074920654 114.0986785888672 7.974536418914795 114.0986785888672 9.516843795776367 C 114.0986785888672 12.62424373626709 112.3296127319336 16.1996898651123 108.9827575683594 19.856689453125 C 105.6397094726562 23.50949096679688 100.8292007446289 27.13530540466309 95.07131195068359 30.34213638305664 C 89.18929290771484 33.61809158325195 82.48716735839844 36.35679626464844 75.68949127197266 38.26216888427734 C 68.32961273193359 40.32513809204102 61.14287948608398 41.37113571166992 54.32889175415039 41.37113571166992 Z" transform="matrix(-0.996, -0.087, 0.087, -0.996, 268.287, 150.073)"/><path stroke="none" d="M 94.9429931640625 3.000003814697266 C 89.67765045166016 3.000003814697266 83.54969787597656 3.343170166015625 77.06198120117188 3.706497192382812 C 69.7545166015625 4.115715026855469 62.19826507568359 4.53887939453125 54.34946823120117 4.592731475830078 C 53.84990310668945 4.596149444580078 53.34013748168945 4.597896575927734 52.83432006835938 4.597896575927734 C 44.65141296386719 4.597896575927734 37.09726715087891 4.151695251464844 30.43239593505859 3.758041381835938 C 25.08792114257812 3.442367553710938 20.47226715087891 3.169731140136719 16.46463012695312 3.169731140136719 C 11.22906494140625 3.169731140136719 7.803955078125 3.655658721923828 5.685630798339844 4.698986053466797 C 4.76153564453125 5.15411376953125 4.1102294921875 5.712932586669922 3.694465637207031 6.407350540161133 C 3.227157592773438 7.187896728515625 2.999992370605469 8.205005645751953 2.999992370605469 9.516841888427734 C 2.999992370605469 12.40460586547852 4.324851989746094 15.71082305908203 6.831336975097656 19.07806015014648 C 9.469955444335938 22.62276840209961 13.32125091552734 26.10273361206055 17.96886444091797 29.14173316955566 C 22.87001037597656 32.34647750854492 28.59763336181641 35.00846099853516 34.53253936767578 36.83987808227539 C 41.05066680908203 38.85128021240234 47.71112060546875 39.87113189697266 54.32890319824219 39.87113189697266 C 61.00603103637695 39.87113189697266 68.05655670166016 38.8438606262207 75.28466796875 36.81784057617188 C 81.97084808349609 34.9437141418457 88.56059265136719 32.25129699707031 94.34144592285156 29.03167724609375 C 99.96035766601562 25.90225982666016 104.6405944824219 22.3794059753418 107.8762130737305 18.84396934509277 C 110.9656829833984 15.46824264526367 112.5986862182617 12.24296951293945 112.5986862182617 9.516841888427734 C 112.5986862182617 8.31886100769043 112.3186874389648 7.373878479003906 111.7427062988281 6.627897262573242 C 111.1485595703125 5.858386993408203 110.1681976318359 5.201114654541016 108.8288650512695 4.674350738525391 C 105.9244689941406 3.53204345703125 101.5121383666992 3.000003814697266 94.9429931640625 3.000003814697266 M 94.94300079345703 7.62939453125e-06 C 107.3591995239258 0 115.5986862182617 1.847782135009766 115.5986862182617 9.516841888427734 C 115.5986862182617 24.0731315612793 83.22856140136719 42.87113189697266 54.32890319824219 42.87113189697266 C 25.42921447753906 42.87113189697266 -7.62939453125e-06 24.0731315612793 -7.62939453125e-06 9.516841888427734 C -7.62939453125e-06 1.955284118652344 6.138763427734375 0.16973876953125 16.46462249755859 0.16973876953125 C 25.70099639892578 0.16973876953125 38.28958892822266 1.597900390625 52.83432006835938 1.597900390625 C 53.3310546875 1.597900390625 53.82765960693359 1.596244812011719 54.32890319824219 1.592803955078125 C 69.27363586425781 1.490253448486328 83.79258728027344 1.1444091796875e-05 94.94300079345703 7.62939453125e-06 Z" transform="matrix(-0.996, -0.087, 0.087, -0.996, 268.287, 150.073)"/></g><path id="Path_113" d="M42.447,1.244c24.678-.169,47.87-5.182,47.87,6.191S65.027,33.5,42.447,33.5,0,18.808,0,7.436,17.769,1.414,42.447,1.244Z" data-name="Path 113" opacity=".12" transform="matrix(-0.996, -0.087, 0.087, -0.996, 256.104, 144.301)"/><g id="Path_92" fill="#707070" data-name="Path 92"><path stroke="none" d="M 136.7473602294922 130.5318908691406 C 131.9985961914062 130.5318908691406 122.750862121582 128.9627990722656 110.0038833618164 125.9942779541016 C 98.70055389404297 123.3619232177734 85.03312683105469 119.7316589355469 70.47914886474609 115.4959487915039 C 56.9493408203125 111.5583038330078 43.82024383544922 107.430778503418 33.5103645324707 103.8737106323242 C 18.67314910888672 98.754638671875 15.32793426513672 96.78421020507812 14.5783863067627 96.17463684082031 C 12.13905334472656 94.19087219238281 10.81545829772949 92.11146545410156 10.64441013336182 89.99418640136719 C 10.39378929138184 86.89182281494141 12.57974910736084 83.9188232421875 14.58423709869385 81.63895416259766 C 14.88778400421143 81.56391906738281 15.82900619506836 81.40713500976562 18.39352989196777 81.40713500976562 C 24.64198112487793 81.40713500976562 36.95833969116211 82.30015563964844 54.01110076904297 83.98960876464844 C 69.64112854003906 85.53813934326172 88.47676849365234 87.68520355224609 107.0482940673828 90.03532409667969 C 125.9466018676758 92.42678070068359 143.4244842529297 94.88606262207031 156.2623443603516 96.96011352539062 C 163.1869506835938 98.07882690429688 168.7482452392578 99.08061218261719 172.7917633056641 99.93763732910156 C 178.6015930175781 101.1690216064453 179.7413940429688 101.7859344482422 179.9311370849609 101.9165878295898 C 179.9503631591797 101.935661315918 179.9609375 101.9494323730469 179.9652252197266 101.9560317993164 C 179.9704284667969 102.0053482055664 180.0007476806641 102.6853561401367 178.3222503662109 104.4136581420898 C 177.0161437988281 105.7585372924805 174.9729766845703 107.4180908203125 172.2495269775391 109.3462295532227 C 167.0831298828125 113.0039215087891 160.1800079345703 117.1393966674805 154.0894775390625 120.7880401611328 C 147.5643768310547 124.6970596313477 141.9287261962891 128.0731811523438 139.5543060302734 130.1563110351562 C 139.514892578125 130.1845703125 138.9842071533203 130.5318908691406 136.7473602294922 130.5318908691406 Z" transform="translate(36.092 120.455)"/><path stroke="none" d="M 18.39350891113281 82.90715026855469 C 16.73178100585938 82.90715026855469 15.82894897460938 82.97305297851562 15.36483764648438 83.02804565429688 C 13.66160583496094 85.02020263671875 11.94686889648438 87.48850250244141 12.13954162597656 89.87339019775391 C 12.2763671875 91.56689453125 13.41531372070312 93.29539489746094 15.52476501464844 95.01089477539062 C 15.90664672851562 95.32144165039062 18.59207153320312 97.139892578125 33.99958801269531 102.4557189941406 C 44.28703308105469 106.0050659179688 57.39126586914062 110.1246643066406 70.8983154296875 114.0556945800781 C 102.6389617919922 123.293342590332 127.8708419799805 129.0318908691406 136.7473449707031 129.0318908691406 C 137.9723205566406 129.0318908691406 138.5458068847656 128.920166015625 138.7557067871094 128.8643798828125 C 141.3252410888672 126.686149597168 146.8950805664062 123.3494186401367 153.3186187744141 119.5012664794922 C 158.8836669921875 116.1674194335938 165.1912078857422 112.3887405395508 170.1413879394531 108.987419128418 C 172.7309417724609 107.2080917358398 174.7734832763672 105.6502151489258 176.2123107910156 104.3570404052734 C 176.986572265625 103.6611709594727 177.501220703125 103.1191787719727 177.8419342041016 102.7140502929688 C 176.7848510742188 102.3921813964844 174.91845703125 101.9059371948242 171.6593170166016 101.233268737793 C 167.4886474609375 100.372444152832 161.8486328125 99.37199401855469 154.8960418701172 98.25968933105469 C 141.9606323242188 96.19026947021484 124.5409927368164 93.75246429443359 105.8459625244141 91.39537048339844 C 87.4378662109375 89.07444000244141 68.81936645507812 86.95891571044922 53.42021179199219 85.43849182128906 C 36.64756774902344 83.782470703125 24.53553771972656 82.90715026855469 18.39350891113281 82.90715026855469 M 18.39352416992188 79.90713500976562 C 45.30429077148438 79.90713500976562 175.8953094482422 96.19707489013672 180.9275207519531 100.7945709228516 C 186.4757843017578 105.8635940551758 147.5218658447266 125.1565399169922 140.5399475097656 131.2870178222656 C 139.9599609375 131.7962646484375 138.6553039550781 132.0318908691406 136.7473449707031 132.0318908691406 C 115.6868057250977 132.0318908691406 21.01338195800781 103.341194152832 13.6319580078125 97.33839416503906 C 5.581863403320312 90.79177093505859 10.06724548339844 84.46037292480469 13.6319580078125 80.45144653320312 C 13.96354675292969 80.07853698730469 15.63362121582031 79.90713500976562 18.39352416992188 79.90713500976562 Z" transform="translate(36.092 120.455)"/></g><g id="Path_90" fill="#cfcfcf" data-name="Path 90"><path stroke="none" d="M 104.4875030517578 77.03607177734375 C 97.40079498291016 77.03607177734375 85.51850128173828 75.77430725097656 70.12521362304688 73.38715362548828 C 56.28860855102539 71.24141693115234 39.69600296020508 68.18756866455078 23.40394973754883 64.78820037841797 C 7.384345531463623 61.4456787109375 -7.690865039825439 57.90928268432617 -19.04468154907227 54.83044052124023 C -35.82365417480469 50.28044128417969 -39.44691848754883 48.12538909912109 -40.22586441040039 47.41001892089844 C -40.81662750244141 46.86751937866211 -41.90302276611328 45.5159912109375 -43.72381210327148 42.15817642211914 C -45.16704940795898 39.49662399291992 -46.82399749755859 36.03112411499023 -48.64865493774414 31.85794067382812 C -52.20902252197266 23.71494102478027 -56.2292594909668 13.26799297332764 -59.96873474121094 2.441545486450195 C -63.92062759399414 -8.99990177154541 -67.25452423095703 -19.94116592407227 -69.60999298095703 -29.19940185546875 C -72.21904754638672 -39.45440292358398 -73.49115753173828 -47.17113876342773 -73.28878784179688 -51.51540374755859 C -73.16836547851562 -54.10055923461914 -72.55783843994141 -54.63645553588867 -72.48860168457031 -54.68906021118164 C -72.42344665527344 -54.73858642578125 -71.76128387451172 -55.18190383911133 -68.623046875 -55.49526977539062 C -66.36873626708984 -55.72040176391602 -63.29404830932617 -55.83456039428711 -59.48444366455078 -55.83456039428711 C -41.11186599731445 -55.83456039428711 -5.272786140441895 -53.13361358642578 31.81989860534668 -48.95358657836914 C 49.22042465209961 -46.99269104003906 64.55374145507812 -44.96258544921875 76.16218566894531 -43.08271789550781 C 82.25005340576172 -42.09687423706055 87.14224243164062 -41.17748260498047 90.70284271240234 -40.35005950927734 C 95.86425018310547 -39.15066528320312 96.77442169189453 -38.46414184570312 96.87310791015625 -38.37747573852539 C 97.21324157714844 -38.01968002319336 99.01613616943359 -35.45727920532227 102.4328460693359 -19.28190231323242 C 104.6684494018555 -8.69819164276123 107.0198211669922 5.106256008148193 108.8840560913086 18.59183502197266 C 110.8958206176758 33.14446640014648 112.2562408447266 46.6727294921875 112.7146911621094 56.68465042114258 C 112.969108581543 62.24067687988281 112.9553451538086 66.75696563720703 112.6737670898438 70.10810089111328 C 112.2822647094727 74.76765441894531 111.4724273681641 75.90257263183594 111.2335586547852 76.13944244384766 C 111.2195587158203 76.15333557128906 110.8731079101562 76.48230743408203 109.3454742431641 76.73493957519531 C 108.1372909545898 76.93475341796875 106.502815246582 77.03607177734375 104.4875030517578 77.03607177734375 Z" transform="translate(74.81 174.537)"/><path stroke="none" d="M -59.48440551757812 -54.33456802368164 C -68.05342102050781 -54.33456802368164 -70.7464599609375 -53.73733901977539 -71.48094177246094 -53.49827194213867 C -71.76656341552734 -52.73236465454102 -72.55638122558594 -49.17035293579102 -69.81517791748047 -36.56425857543945 C -67.86445617675781 -27.59342575073242 -64.61540222167969 -16.1807861328125 -60.41923522949219 -3.560148239135742 C -56.50962829589844 8.198684692382812 -52.16581726074219 19.81198883056641 -48.18798828125 29.14048957824707 C -42.38629150390625 42.74615478515625 -39.85034942626953 45.71837615966797 -39.21128845214844 46.30524063110352 C -39.10964965820312 46.39857482910156 -38.07073974609375 47.26912689208984 -32.96392822265625 49.06587982177734 C -29.37812805175781 50.32749176025391 -24.56290435791016 51.77987670898438 -18.65209579467773 53.38274002075195 C -7.325874328613281 56.45407485961914 7.71873664855957 59.98312759399414 23.71034622192383 63.31982421875 C 39.97787475585938 66.71407318115234 56.54328918457031 69.76296234130859 70.3551025390625 71.90484619140625 C 85.67365264892578 74.28041076660156 97.47645568847656 75.53607177734375 104.4875106811523 75.53607177734375 C 108.3439483642578 75.53607177734375 109.7848587036133 75.14797973632812 110.2096633911133 74.99111175537109 C 110.4140090942383 74.59217834472656 110.9602584838867 73.19398498535156 111.2319869995117 69.29157257080078 C 111.4669570922852 65.9169921875 111.4491806030273 61.43598937988281 111.1791000366211 55.97304534912109 C 110.6815948486328 45.91007232666016 109.3635711669922 32.97835159301758 107.3675384521484 18.57587814331055 C 105.5148162841797 5.207517623901367 103.2729568481445 -7.97584342956543 101.0549621582031 -18.54561996459961 C 99.93775939941406 -23.86956405639648 98.88307189941406 -28.25634384155273 97.92015075683594 -31.58406448364258 C 96.77406311035156 -35.54479217529297 96.07875061035156 -36.87406158447266 95.84098815917969 -37.25348281860352 C 95.42630767822266 -37.46647644042969 93.94503784179688 -38.09544372558594 89.45320892333984 -39.09598159790039 C 85.75563049316406 -39.91959381103516 80.77815246582031 -40.83098220825195 74.65912628173828 -41.80481338500977 C 62.93698883056641 -43.67034530639648 47.65668106079102 -45.67281723022461 30.47015380859375 -47.59570693969727 C -6.118373870849609 -51.68939590454102 -41.42765045166016 -54.33456802368164 -59.48440551757812 -54.33456802368164 M -59.48439788818359 -57.33455276489258 C -19.22953414916992 -57.33455276489258 92.72222900390625 -44.81521987915039 97.94503784179688 -39.42681503295898 C 104.1471786499023 -33.02803802490234 120.0943756103516 69.46593475341797 112.289680480957 77.20460510253906 C 111.3631591796875 78.12328338623047 108.6184310913086 78.53607940673828 104.4875259399414 78.53607940673828 C 73.82113647460938 78.53607940673828 -33.30995941162109 55.79780197143555 -41.24048614501953 48.51485061645508 C -50.23926544189453 40.25082397460938 -81.81748962402344 -49.48464584350586 -73.39609527587891 -55.88339614868164 C -72.06637573242188 -56.89374923706055 -67.03236389160156 -57.33455276489258 -59.48439788818359 -57.33455276489258 Z" transform="translate(74.81 174.537)"/></g><g id="Path_68-2" fill="#fff" data-name="Path 68"><path stroke="none" d="M 17.86042213439941 28.10345458984375 C 13.49039173126221 28.10345458984375 9.381932258605957 26.40166473388672 6.291862010955811 23.31157493591309 C 3.2017822265625 20.22147560119629 1.500002145767212 16.11298561096191 1.500002145767212 11.74292469024658 C 1.500002145767212 9.212385177612305 2.154682159423828 7.374015331268311 3.62275218963623 5.78215503692627 C 5.040652275085449 4.24469518661499 7.116732120513916 3.03371524810791 9.520631790161133 1.631505131721497 C 12.40830230712891 -0.05288483574986458 15.68127250671387 -1.96201479434967 18.89645195007324 -5.032865047454834 C 20.15273284912109 -6.232744693756104 21.45086288452148 -6.841135025024414 22.75478172302246 -6.841135025024414 C 24.02975273132324 -6.841135025024414 25.36434173583984 -6.277344703674316 26.72147178649902 -5.165434837341309 C 28.05350303649902 -4.074094772338867 29.36618232727051 -2.470554828643799 30.51760292053223 -0.5281648635864258 C 31.63181304931641 1.351425170898438 32.56713104248047 3.494495153427124 33.22247314453125 5.669364929199219 C 33.8756103515625 7.836915016174316 34.22084045410156 9.937125205993652 34.22084045410156 11.74292469024658 C 34.22084045410156 16.11298561096191 32.51906204223633 20.22147560119629 29.42898178100586 23.31157493591309 C 26.33891296386719 26.40166473388672 22.2304515838623 28.10345458984375 17.86042213439941 28.10345458984375 Z" transform="translate(76.536 174.247)"/><path stroke="none" d="M 22.7535514831543 -8.341134071350098 L 22.7535514831543 -5.341134071350098 C 21.83667182922363 -5.341134071350098 20.91389083862305 -4.885485649108887 19.93248176574707 -3.948134422302246 C 16.58959197998047 -0.755314826965332 13.23558235168457 1.201095581054688 10.27641296386719 2.92719554901123 C 7.976791381835938 4.26856517791748 5.990781784057617 5.42701530456543 4.725421905517578 6.799075126647949 C 3.516010284423828 8.110465049743652 3.000003814697266 9.588994979858398 3.000003814697266 11.7429256439209 C 3.000003814697266 15.71232509613037 4.54576301574707 19.44412612915039 7.352521896362305 22.25091552734375 C 10.15928268432617 25.05769538879395 13.89106178283691 26.60345458984375 17.86042213439941 26.60345458984375 C 21.82978248596191 26.60345458984375 25.56156158447266 25.05769538879395 28.36832237243652 22.25091552734375 C 31.17508316040039 19.44412612915039 32.72084045410156 15.71232509613037 32.72084045410156 11.7429256439209 C 32.72084045410156 8.333465576171875 31.34955215454102 3.817245483398438 29.2273120880127 0.2373151779174805 C 27.1877326965332 -3.203185081481934 24.70736312866211 -5.340723991394043 22.75415229797363 -5.341134071350098 L 22.7535514831543 -8.341134071350098 M 22.75477981567383 -8.341134071350098 C 29.60844039916992 -8.339694023132324 35.72084045410156 3.75905704498291 35.72084045410156 11.7429256439209 C 35.72084045410156 21.60702514648438 27.72446250915527 29.60345458984375 17.86042213439941 29.60345458984375 C 7.996381759643555 29.60345458984375 3.814697265625e-06 21.60702514648438 3.814697265625e-06 11.7429256439209 C 3.814697265625e-06 1.87883472442627 9.328512191772461 2.031294822692871 17.86042213439941 -6.117594718933105 C 19.48671340942383 -7.670878410339355 21.14072418212891 -8.341473579406738 22.75477981567383 -8.341134071350098 Z" transform="translate(76.536 174.247)"/></g><path id="Path_93" fill="none" stroke="#000" stroke-linecap="round" stroke-width="3" d="M17117.277,4734.8s10.555-15.685,23.9-11.687,21.094-10.312,21.094-10.312" data-name="Path 93" transform="translate(-16871.379 -4611.114)"/><path id="Path_94" fill="none" stroke="#000" stroke-linecap="round" stroke-width="3" d="M17093.074,4715.07s13.107-.439,10.727-14.005,11.422-14.909,11.422-14.909" data-name="Path 94" transform="translate(-16859.346 -4597.867)"/><path id="Path_95" fill="none" stroke="#000" stroke-linecap="round" stroke-width="3" d="M17044.25,4651.156s-15.355-38.846,0-51.794,43.748,8.164,61.424,0,9.279-32.654,9.279-32.654" data-name="Path 95" transform="translate(-16831.674 -4538.474)"/><path id="Path_96" fill="none" stroke="#000" stroke-linecap="round" stroke-width="3" d="M17016.758,4637.823s-9.617-30.37,0-50.112,0-47.817,0-47.817" data-name="Path 96" transform="translate(-16819.273 -4525.141)"/><path id="Path_97" fill="none" stroke="#000" stroke-linecap="round" stroke-width="3" d="M16948.1,4699.486s-6.959-21.86-18.033-33.028-26.264-11.644-26.264-11.644" data-name="Path 97" transform="translate(-16765.232 -4582.283)"/><path id="Path_98" fill="none" stroke="#000" stroke-linecap="round" stroke-width="3" d="M16928.41,4737.6s-19.258-17.331-29.764-19.022-12.256,12.256-12.256,12.256" data-name="Path 98" transform="translate(-16756.576 -4613.917)"/><g id="Path_99" fill="#fff" data-name="Path 99"><path stroke="none" d="M 12.52188301086426 18.28488922119141 C 9.57783317565918 18.28488922119141 6.809992790222168 17.13840866088867 4.728232860565186 15.05663967132568 C 2.646482944488525 12.9748592376709 1.500002980232239 10.20700931549072 1.500002980232239 7.262929439544678 C 1.500002980232239 4.636329174041748 2.857033014297485 1.830249309539795 5.223123073577881 -0.4358106553554535 C 7.342913150787354 -2.465970754623413 10.02271270751953 -3.777770757675171 12.0502233505249 -3.777770757675171 C 12.16963291168213 -3.777770757675171 12.28747272491455 -3.773120641708374 12.40045261383057 -3.763940572738647 C 14.61818313598633 -3.583820581436157 17.45623207092285 -2.2305006980896 19.63072395324707 -0.3161806464195251 C 21.09212303161621 0.9703593254089355 23.54376220703125 3.665769338607788 23.54376220703125 7.262929439544678 C 23.54376220703125 10.20699977874756 22.39728355407715 12.9748592376709 20.31552314758301 15.05663967132568 C 18.23376274108887 17.13840866088867 15.46593284606934 18.28488922119141 12.52188301086426 18.28488922119141 Z" transform="translate(280.468 84.88)"/><path stroke="none" d="M 12.04967308044434 -2.277770042419434 C 10.41380310058594 -2.277770042419434 8.08729362487793 -1.102160453796387 6.260452270507812 0.6475791931152344 C 4.188392639160156 2.632189750671387 3.000003814697266 5.043389320373535 3.000003814697266 7.262929439544678 C 3.000003814697266 12.51335906982422 7.271503448486328 16.78488922119141 12.52188301086426 16.78488922119141 C 17.77226257324219 16.78488922119141 22.04376220703125 12.51335906982422 22.04376220703125 7.262929439544678 C 22.04376220703125 4.255619049072266 19.91092300415039 1.928939819335938 18.63955307006836 0.8096895217895508 C 17.63799285888672 -0.07203102111816406 16.47737312316895 -0.8314008712768555 15.28316307067871 -1.386321067810059 C 14.20931339263916 -1.885319709777832 13.14242267608643 -2.19874095916748 12.27910327911377 -2.268860816955566 C 12.20634269714355 -2.27476978302002 12.12927341461182 -2.277770042419434 12.05009269714355 -2.277770042419434 L 12.04976272583008 -2.277770042419434 L 12.04967308044434 -2.277770042419434 M 12.05022430419922 -5.277771949768066 C 12.20973682403564 -5.277758598327637 12.36743068695068 -5.271565437316895 12.52188301086426 -5.259020805358887 C 17.42605209350586 -4.860711097717285 25.04376220703125 0.3472490310668945 25.04376220703125 7.262929439544678 C 25.04376220703125 14.17861938476562 19.43752288818359 19.78488922119141 12.52188301086426 19.78488922119141 C 5.606233596801758 19.78488922119141 3.814697265625e-06 14.17861938476562 3.814697265625e-06 7.262929439544678 C 3.814697265625e-06 0.5650529861450195 7.144893646240234 -5.27820873260498 12.05022430419922 -5.277771949768066 Z" transform="translate(280.468 84.88)"/></g><g id="Path_101" fill="#fff" data-name="Path 101"><path stroke="none" d="M 12.5220947265625 23.64500427246094 C 9.577984809875488 23.64500427246094 6.810094833374023 22.49851417541504 4.728294849395752 20.41673469543457 C 2.646504640579224 18.33496475219727 1.500004768371582 15.56711483001709 1.500004768371582 12.62304496765137 C 1.500004768371582 9.480884552001953 2.26963472366333 6.694864749908447 3.667134761810303 4.778204917907715 C 5.253164768218994 2.602944612503052 7.633394718170166 1.500004768371582 10.74168491363525 1.500004768371582 C 11.25875473022461 1.500004768371582 11.80258464813232 1.53098475933075 12.35806465148926 1.592094779014587 C 14.44101428985596 1.821254730224609 16.24948501586914 2.257314682006836 17.73324394226074 2.888164758682251 C 19.10183525085449 3.470044612884521 20.23449516296387 4.236504554748535 21.09973526000977 5.166244506835938 C 22.74460411071777 6.933714866638184 23.5441951751709 9.372855186462402 23.5441951751709 12.62304496765137 C 23.5441951751709 15.56711483001709 22.39769554138184 18.33496475219727 20.31590461730957 20.41673469543457 C 18.23409461975098 22.49851417541504 15.46620464324951 23.64500427246094 12.5220947265625 23.64500427246094 Z" transform="matrix(0.391, -0.921, 0.921, 0.391, 239.991, 90.721)"/><path stroke="none" d="M 10.74046516418457 3.814697265625e-06 L 10.74046516418457 3.000003814697266 L 10.74044513702393 3.000003814697266 C 8.102184295654297 3.000003814697266 6.184894561767578 3.870735168457031 4.879045486450195 5.661933898925781 C 3.667324066162109 7.324024200439453 2.999994277954102 9.796195030212402 2.999994277954102 12.62304496765137 C 2.999994277954102 17.87347412109375 7.271595001220703 22.14500427246094 12.5220947265625 22.14500427246094 C 17.7725944519043 22.14500427246094 22.04418563842773 17.87347412109375 22.04418563842773 12.62304496765137 C 22.04418563842773 9.769854545593262 21.37607574462891 7.664985656738281 20.00167465209961 6.188135147094727 C 18.45646476745605 4.527744293212891 15.82959461212158 3.483064651489258 12.1940450668335 3.083105087280273 C 11.69310474395752 3.027994155883789 11.20438480377197 3.000034332275391 10.74142456054688 3.000003814697266 L 10.74046516418457 3.814697265625e-06 M 10.74167442321777 0 C 11.30891227722168 4.76837158203125e-05 11.90296649932861 0.03298187255859375 12.5220947265625 0.1010951995849609 C 21.62783432006836 1.102853775024414 25.04418563842773 5.707365036010742 25.04418563842773 12.62304496765137 C 25.04418563842773 19.53872489929199 19.4378547668457 25.14500427246094 12.5220947265625 25.14500427246094 C 5.606334686279297 25.14500427246094 -5.7220458984375e-06 19.53872489929199 -5.7220458984375e-06 12.62304496765137 C -5.7220458984375e-06 6.177583694458008 2.966342926025391 -0.0006504058837890625 10.74167442321777 0 Z" transform="matrix(0.391, -0.921, 0.921, 0.391, 239.991, 90.721)"/></g><g id="Path_103" fill="#fff" data-name="Path 103"><path stroke="none" d="M 12.52188301086426 17.73127746582031 C 9.57783317565918 17.73127746582031 6.809992790222168 16.58479690551758 4.728232860565186 14.50302696228027 C 2.646482944488525 12.42124652862549 1.500002980232239 9.653396606445312 1.500002980232239 6.709316730499268 C 1.500002980232239 3.815446615219116 2.351912975311279 1.763206481933594 4.262272834777832 0.05508651956915855 C 6.392673015594482 -1.849783420562744 9.735713005065918 -3.212653398513794 13.03099346160889 -4.401673316955566 C 13.93115329742432 -4.726473331451416 14.80299282073975 -4.891163349151611 15.62228298187256 -4.891163349151611 C 18.45607376098633 -4.891163349151611 20.29323387145996 -2.925253391265869 21.33542251586914 -1.276053428649902 C 22.71821212768555 0.9121465086936951 23.54376220703125 3.897326469421387 23.54376220703125 6.709316730499268 C 23.54376220703125 9.653386116027832 22.39728355407715 12.42124652862549 20.31552314758301 14.50302696228027 C 18.23376274108887 16.58479690551758 15.46593284606934 17.73127746582031 12.52188301086426 17.73127746582031 Z" transform="translate(271.921 22.084)"/><path stroke="none" d="M 15.62108325958252 -6.391162872314453 L 15.62108325958252 -3.39116382598877 C 14.97665309906006 -3.39116382598877 14.27651309967041 -3.256433486938477 13.5401029586792 -2.990713119506836 C 10.53809261322021 -1.907513618469238 7.20698356628418 -0.5657138824462891 5.262092590332031 1.173286437988281 C 3.676513671875 2.591006755828857 3.000003814697266 4.246646404266357 3.000003814697266 6.709316253662109 C 3.000003814697266 11.95974636077881 7.271503448486328 16.23127746582031 12.52188301086426 16.23127746582031 C 17.77226257324219 16.23127746582031 22.04376220703125 11.95974636077881 22.04376220703125 6.709316253662109 C 22.04376220703125 4.169366359710693 21.3049430847168 1.48388671875 20.06742286682129 -0.4743337631225586 C 19.45946311950684 -1.436343193054199 18.76660346984863 -2.17534351348877 18.0080623626709 -2.670783042907715 C 17.26614379882812 -3.155393600463867 16.4855842590332 -3.391023635864258 15.62181282043457 -3.39116382598877 L 15.62108325958252 -6.391162872314453 M 15.62227821350098 -6.391164779663086 C 21.67675399780273 -6.390213012695312 25.04376220703125 0.7454710006713867 25.04376220703125 6.709316253662109 C 25.04376220703125 13.62500667572021 19.43752288818359 19.23127746582031 12.52188301086426 19.23127746582031 C 5.606233596801758 19.23127746582031 3.814697265625e-06 13.62500667572021 3.814697265625e-06 6.709316253662109 C 3.814697265625e-06 -0.2063636779785156 4.525903701782227 -2.927483558654785 12.52188301086426 -5.812633514404297 C 13.62240409851074 -6.209728240966797 14.65597915649414 -6.391315460205078 15.62227821350098 -6.391164779663086 Z" transform="translate(271.921 22.084)"/></g><g id="Path_105" fill="#fff" data-name="Path 105"><path stroke="none" d="M 12.52209281921387 18.12235450744629 C 9.577982902526855 18.12235450744629 6.810092926025391 16.97586441040039 4.728292942047119 14.89409351348877 C 2.646502733230591 12.81232357025146 1.500002861022949 10.04446411132812 1.500002861022949 7.100393772125244 C 1.500002861022949 4.170963764190674 2.364962816238403 1.317653775215149 3.873112916946411 -0.7279162406921387 C 5.008842945098877 -2.26836633682251 7.073662757873535 -4.104656219482422 10.46079254150391 -4.104656219482422 C 11.04090309143066 -4.104656219482422 11.64838314056396 -4.050436019897461 12.2663631439209 -3.943516254425049 C 16.04804229736328 -3.289206266403198 18.91630363464355 -2.015626192092896 20.79145240783691 -0.1581662595272064 C 21.69404220581055 0.7359237670898438 22.38234329223633 1.786783695220947 22.83721351623535 2.96523380279541 C 23.30632209777832 4.1805739402771 23.5441837310791 5.57184362411499 23.5441837310791 7.100393772125244 C 23.5441837310791 10.04446411132812 22.39768218994141 12.81232357025146 20.31589317321777 14.89409351348877 C 18.23409271240234 16.97586441040039 15.46620273590088 18.12235450744629 12.52209281921387 18.12235450744629 Z" transform="translate(184.942 5.605)"/><path stroke="none" d="M 10.46079254150391 -2.604656219482422 C 8.244253158569336 -2.604656219482422 6.434041976928711 -1.673746109008789 5.080442428588867 0.1622133255004883 C 3.758293151855469 1.955523490905762 3.000001907348633 4.484394073486328 3.000001907348633 7.100393772125244 C 3.000001907348633 12.35082340240479 7.27159309387207 16.62235450744629 12.52209281921387 16.62235450744629 C 17.77259254455566 16.62235450744629 22.04418182373047 12.35082340240479 22.04418182373047 7.100393772125244 C 22.04418182373047 4.471854209899902 21.28911209106445 2.44615364074707 19.7358226776123 0.9075136184692383 C 18.08303260803223 -0.7296857833862305 15.48390293121338 -1.86452579498291 12.01062297821045 -2.465476036071777 C 11.47687244415283 -2.557826042175293 10.9554328918457 -2.604656219482422 10.46079254150391 -2.604656219482422 M 10.46079254150391 -5.604655265808105 C 11.1182918548584 -5.604655265808105 11.80547904968262 -5.545546531677246 12.52209281921387 -5.421555519104004 C 20.69258308410645 -4.007885932922363 25.0441837310791 0.1847133636474609 25.0441837310791 7.100393772125244 C 25.0441837310791 14.01608371734619 19.43785285949707 19.62235260009766 12.52209281921387 19.62235260009766 C 5.606332778930664 19.62235260009766 1.9073486328125e-06 14.01608371734619 1.9073486328125e-06 7.100393772125244 C 1.9073486328125e-06 0.7912712097167969 3.621791839599609 -5.604655265808105 10.46079254150391 -5.604655265808105 Z" transform="translate(184.942 5.605)"/></g><g id="Path_107" fill="#fff" data-name="Path 107"><path stroke="none" d="M 12.52188491821289 23.76149559020996 C 9.577835083007812 23.76149559020996 6.809994697570801 22.61501693725586 4.728234767913818 20.53324699401855 C 2.646484851837158 18.45146560668945 1.500004887580872 15.68361663818359 1.500004887580872 12.73953628540039 C 1.500004887580872 9.825606346130371 2.486174821853638 7.40985631942749 4.431105136871338 5.559376239776611 C 6.343454837799072 3.739896297454834 9.167004585266113 2.437036275863647 12.82331466674805 1.686986327171326 C 13.42815494537354 1.562916398048401 14.02755451202393 1.499996423721313 14.60487461090088 1.499996423721313 C 17.79413414001465 1.499996423721313 19.86287498474121 3.361026287078857 21.03672409057617 4.922236442565918 C 22.62999534606934 7.04124641418457 23.54377555847168 9.890546798706055 23.54377555847168 12.73953628540039 C 23.54377555847168 15.68360614776611 22.39729499816895 18.45146560668945 20.3155345916748 20.53324699401855 C 18.23377418518066 22.61501693725586 15.46593475341797 23.76149559020996 12.52188491821289 23.76149559020996 Z" transform="matrix(-0.438, -0.899, 0.899, -0.438, 136.397, 88.253)"/><path stroke="none" d="M 14.6040153503418 2.999996185302734 C 14.12832450866699 2.999996185302734 13.63062477111816 3.052616119384766 13.12474536895752 3.156387329101562 C 9.747844696044922 3.849117279052734 7.170755386352539 5.023225784301758 5.465044021606445 6.646097183227539 C 3.806314468383789 8.22425651550293 2.999994277954102 10.21744632720947 2.999994277954102 12.73953628540039 C 2.999994277954102 17.98996734619141 7.271495819091797 22.26149559020996 12.52188491821289 22.26149559020996 C 17.77226448059082 22.26149559020996 22.04376411437988 17.98996734619141 22.04376411437988 12.73953628540039 C 22.04376411437988 10.20902633666992 21.2397346496582 7.688396453857422 19.83783531188965 5.823945999145508 C 18.8692741394043 4.535816192626953 17.17512512207031 3.000246047973633 14.60443496704102 2.999996185302734 L 14.60406494140625 2.999996185302734 L 14.6040153503418 2.999996185302734 M 14.6048755645752 0 C 21.03504753112793 0.0006275177001953125 25.04376411437988 6.475578308105469 25.04376411437988 12.73953628540039 C 25.04376411437988 19.65522575378418 19.43753433227539 25.26149559020996 12.52188491821289 25.26149559020996 C 5.606235504150391 25.26149559020996 -5.7220458984375e-06 19.65522575378418 -5.7220458984375e-06 12.73953628540039 C -5.7220458984375e-06 5.823856353759766 4.885135650634766 1.784175872802734 12.52188491821289 0.2175865173339844 C 13.24155902862549 0.06995391845703125 13.9358606338501 -6.4849853515625e-05 14.6048755645752 0 Z" transform="matrix(-0.438, -0.899, 0.899, -0.438, 136.397, 88.253)"/></g><g id="Path_109" fill="#fff" data-name="Path 109"><path stroke="none" d="M 9.018204689025879 16.74461555480957 C 9.018082618713379 16.74461555480957 9.018288612365723 16.74461555480957 9.018166542053223 16.74461555480957 C 4.872656345367432 16.74459457397461 1.50002646446228 13.37197494506836 1.500006437301636 9.226485252380371 C 1.499996423721313 7.187964916229248 2.096636533737183 5.619064807891846 3.324016571044922 4.430124759674072 C 4.590946674346924 3.2028648853302 6.561496257781982 2.300565004348755 9.3482666015625 1.671664953231812 C 9.85301685333252 1.557754874229431 10.34360599517822 1.500004887580872 10.80640602111816 1.500004887580872 C 12.5189266204834 1.500004887580872 13.9220666885376 2.272714853286743 14.97683620452881 3.796694993972778 C 15.96782684326172 5.228515148162842 16.53619575500488 7.207634925842285 16.53620719909668 9.226604461669922 C 16.53621673583984 11.23474502563477 15.75421619415283 13.12269496917725 14.33424663543701 14.5426549911499 C 12.91436290740967 15.96253871917725 11.02621746063232 16.74461555480957 9.018204689025879 16.74461555480957 Z" transform="matrix(-0.438, -0.899, 0.899, -0.438, 123.744, 125.892)"/><path stroke="none" d="M 10.80627632141113 5.7220458984375e-06 L 10.80627632141113 3.000004768371582 C 10.45447635650635 3.000004768371582 10.07501602172852 3.045385360717773 9.678466796875 3.134875297546387 C 7.203056335449219 3.69350528717041 5.41624641418457 4.491774559020996 4.367666244506836 5.507514953613281 C 3.780546188354492 6.076254844665527 2.999996185302734 7.080544471740723 3.000006675720215 9.226484298706055 C 3.000016212463379 12.5448751449585 5.699756622314453 15.24459457397461 9.018216133117676 15.24461460113525 C 10.62551689147949 15.24461460113525 12.13672637939453 14.61859512329102 13.27345657348633 13.48186492919922 C 14.41019630432129 12.34513473510742 15.03621673583984 10.83392524719238 15.03620624542236 9.226604461669922 C 15.0361967086792 7.530674934387207 14.55292701721191 5.819925308227539 13.74343681335449 4.650364875793457 C 12.97482681274414 3.539844512939453 12.01411628723145 3.000015258789062 10.806396484375 3.000004768371582 L 10.80627632141113 5.7220458984375e-06 M 10.80640602111816 1.9073486328125e-06 C 15.57689380645752 2.6702880859375e-05 18.03618812561035 4.772553443908691 18.03620719909668 9.226594924926758 C 18.03623580932617 14.20713520050049 13.99871635437012 18.24464416503906 9.018156051635742 18.24461555480957 C 4.037596702575684 18.24458503723145 2.6702880859375e-05 14.20703506469727 5.7220458984375e-06 9.226494789123535 C -2.288818359375e-05 4.245944976806641 3.074956893920898 1.549664497375488 9.018056869506836 0.208465576171875 C 9.646318435668945 0.06668281555175781 10.24249076843262 -1.9073486328125e-06 10.80640602111816 1.9073486328125e-06 Z" transform="matrix(-0.438, -0.899, 0.899, -0.438, 123.744, 125.892)"/></g><ellipse id="Ellipse_22" cx="4.13" cy="4.13" data-name="Ellipse 22" rx="4.13" ry="4.13" transform="translate(288.878 88.732)"/><ellipse id="Ellipse_23" cx="4.13" cy="4.13" data-name="Ellipse 23" rx="4.13" ry="4.13" transform="matrix(0.391, -0.921, 0.921, 0.391, 251.757, 86.579)"/><ellipse id="Ellipse_24" cx="4.13" cy="4.13" data-name="Ellipse 24" rx="4.13" ry="4.13" transform="translate(280.331 25.383)"/><ellipse id="Ellipse_25" cx="4.13" cy="4.13" data-name="Ellipse 25" rx="4.13" ry="4.13" transform="translate(193.316 9.295)"/><ellipse id="Ellipse_26" cx="4.13" cy="4.13" data-name="Ellipse 26" rx="4.13" ry="4.13" transform="matrix(-0.438, -0.899, 0.899, -0.438, 141.095, 76.605)"/><ellipse id="Ellipse_27" cx="2.974" cy="2.974" data-name="Ellipse 27" rx="2.974" ry="2.974" transform="matrix(-0.438, -0.899, 0.899, -0.438, 127.175, 117.48)"/><path id="Path_100" fill="#fff" d="M1.308,0A1.308,1.308,0,0,0,0,1.308c0,.723.766,1.713,1.308,1.308s1.308-.586,1.308-1.308A1.308,1.308,0,0,0,1.308,0Z" data-name="Path 100" transform="translate(290.373 91.208)"/><path id="Path_102" fill="#fff" d="M1.308,0A1.308,1.308,0,0,0,0,1.308c0,.723.766,1.713,1.308,1.308s1.308-.586,1.308-1.308A1.308,1.308,0,0,0,1.308,0Z" data-name="Path 102" transform="matrix(0.391, -0.921, 0.921, 0.391, 254.621, 86.17)"/><path id="Path_104" fill="#fff" d="M1.308,0A1.308,1.308,0,0,0,0,1.308c0,.723.766,1.713,1.308,1.308s1.308-.586,1.308-1.308A1.308,1.308,0,0,0,1.308,0Z" data-name="Path 104" transform="translate(281.826 27.859)"/><path id="Path_106" fill="#fff" d="M1.308,0A1.308,1.308,0,0,1,2.617,1.308c0,.723-.766,1.713-1.308,1.308S0,2.031,0,1.308A1.308,1.308,0,0,1,1.308,0Z" data-name="Path 106" transform="translate(197.464 11.77)"/><path id="Path_108" fill="#fff" d="M1.308,0A1.308,1.308,0,0,0,0,1.308c0,.723.766,1.713,1.308,1.308s1.308-.586,1.308-1.308A1.308,1.308,0,0,0,1.308,0Z" data-name="Path 108" transform="matrix(-0.438, -0.899, 0.899, -0.438, 142.665, 74.175)"/><path id="Path_110" fill="#fff" d="M.942,0A.942.942,0,0,0,0,.942c0,.52.552,1.234.942.942s.942-.422.942-.942A.942.942,0,0,0,.942,0Z" data-name="Path 110" transform="matrix(-0.438, -0.899, 0.899, -0.438, 128.305, 115.731)"/><path id="Path_112" fill="none" stroke="#000" stroke-linecap="round" stroke-width="4" d="M0,0S4.136,4.26,8.426,4.26,17.158,0,17.158,0" data-name="Path 112" transform="translate(201.771 125.342) rotate(11)"/><ellipse id="Ellipse_29" cx="20.362" cy="4.022" data-name="Ellipse 29" opacity=".22" rx="20.362" ry="4.022" transform="matrix(0.998, 0.07, -0.07, 0.998, 270.741, 163.981)"/><ellipse id="Ellipse_30" cx="6.285" cy="1.508" data-name="Ellipse 30" opacity=".22" rx="6.285" ry="1.508" transform="matrix(0.998, 0.07, -0.07, 0.998, 234.835, 183.057)"/><path id="Path_117" fill="none" stroke="#000" stroke-linecap="round" stroke-width="3" d="M16927.111,4678.006s-3.127-10.861-9.111-16.9a22.968,22.968,0,0,0-14.2-6.293" data-name="Path 117" transform="translate(-16686.057 -4493.885)"/><g id="Path_118" fill="#fff" data-name="Path 118"><path stroke="none" d="M 6.768487930297852 12.05268478393555 C 3.86343789100647 12.05267524719238 1.50000786781311 9.689245223999023 1.499997854232788 6.784194946289062 C 1.499997854232788 5.344214916229248 1.972127914428711 4.011865139007568 2.829417943954468 3.032565116882324 C 3.707117795944214 2.029955148696899 4.905558109283447 1.500005125999451 6.295157909393311 1.500005125999451 C 6.418077945709229 1.500005125999451 6.544127941131592 1.504205107688904 6.669787883758545 1.512485146522522 C 8.309687614440918 1.620575070381165 9.680598258972168 2.188265085220337 10.63431835174561 3.154185056686401 C 11.55191802978516 4.083515167236328 12.03693771362305 5.338765144348145 12.03693771362305 6.784224987030029 C 12.03693771362305 8.191494941711426 11.48892784118652 9.514514923095703 10.49384784698486 10.50959491729736 C 9.498778343200684 11.50467491149902 8.175747871398926 12.05268478393555 6.768487930297852 12.05268478393555 Z" transform="matrix(-0.438, -0.899, 0.899, -0.438, 216.663, 169.384)"/><path stroke="none" d="M 6.294618129730225 3.000004768371582 C 5.33693790435791 3.000004768371582 4.550787925720215 3.343375205993652 3.95801830291748 4.020565032958984 C 3.349178314208984 4.71612548828125 2.999998092651367 5.723424911499023 2.999998092651367 6.78418493270874 C 3.000007629394531 8.86213493347168 4.690547943115234 10.55267524719238 6.768507957458496 10.55268478393555 C 7.77495813369751 10.55268478393555 8.721258163452148 10.16066551208496 9.433088302612305 9.448844909667969 C 10.14491844177246 8.737014770507812 10.53693771362305 7.79070520401001 10.53693771362305 6.784235000610352 C 10.53692817687988 4.584135055541992 9.054388046264648 3.172924995422363 6.571057796478271 3.009235382080078 C 6.478277683258057 3.003114700317383 6.385387897491455 3.000015258789062 6.294938087463379 3.000004768371582 L 6.294667720794678 3.000004768371582 L 6.294618129730225 3.000004768371582 M 6.295155048370361 3.814697265625e-06 C 6.450459003448486 1.52587890625e-05 6.608606815338135 0.005198478698730469 6.768447875976562 0.01573467254638672 C 10.89911842346191 0.2880048751831055 13.53692817687988 3.04609489440918 13.53693771362305 6.784224987030029 C 13.53694820404053 10.52235507965088 10.50660800933838 13.55269527435303 6.768487930297852 13.55268478393555 C 3.030367851257324 13.55267524719238 7.62939453125e-06 10.52231502532959 -1.9073486328125e-06 6.784194946289062 C -1.1444091796875e-05 3.190716743469238 2.437049865722656 -0.0002956390380859375 6.295155048370361 3.814697265625e-06 Z" transform="matrix(-0.438, -0.899, 0.899, -0.438, 216.663, 169.384)"/></g><ellipse id="Ellipse_32" cx="2.232" cy="2.232" data-name="Ellipse 32" rx="2.232" ry="2.232" transform="matrix(-0.438, -0.899, 0.899, -0.438, 219.112, 163.132)"/><path id="Path_119" fill="#fff" d="M.707,0A.707.707,0,0,0,0,.707c0,.391.414.926.707.707s.707-.317.707-.707A.707.707,0,0,0,.707,0Z" data-name="Path 119" transform="matrix(-0.438, -0.899, 0.899, -0.438, 219.96, 161.819)"/><path id="Path_120" fill="none" stroke="#000" stroke-linecap="round" stroke-width="3" d="M17117.277,4744.349s10.555-15.684,23.9-11.687,4.105,46.889,4.105,46.889" data-name="Path 120" transform="translate(-16854.787 -4609.606)"/></g><g id="Group_34" data-name="Group 34" transform="translate(474.684 558.669)"><path id="Path_63" fill="#00ffa9" stroke="#000" stroke-width="3" d="M13023.881,4699.494c11.484,14.425-6.155,18.778,0,25.038s18.467,6.259,24.623,0-7.6-18.778,0-25.038,22.789-6.259,30.385,0-5.49,18.778,0,25.038,16.475,6.259,21.965,0-6.828-18.778,0-25.038,20.485-6.259,27.313,0-7,18.778,0,25.038,21,6.259,28,0-6.26-18.778,0-25.038,18.777-6.259,25.037,0-7.4,18.778,0,25.038,22.191,6.259,29.589,0-5.957-10.613,0-25.038,16.911-15.433,23.827-32.663,28.646-34.459-27.488-44.1-174.731-7.6-206.424,5.524-28.556,20.77-22.762,38.58S13012.4,4685.068,13023.881,4699.494Z" data-name="Path 63" transform="translate(-12956.824 -4616.716)"/><path id="Path_75" fill="#00ffa9" stroke="#000" stroke-width="3" d="M13006.86,4749.4c5.384,0,2.858,1.313,10.3,0s6.172-8.032,8.229-5.253,2.058,13.307,0,16.371-.788-3.085-8.229-4.114-16.152,0-21.535,0" data-name="Path 75" transform="translate(-12721.616 -4714.943)"/><path id="Path_67" d="M27.812.02c36.442,1.491,26.6,79.5,26.6,110.227s-11.91,55.642-26.6,55.642-26.6-24.912-26.6-55.642S-8.63-1.47,27.812.02Z" data-name="Path 67" opacity=".15" transform="translate(217.303 9.663) rotate(90)"/><path id="Path_66" fill="none" stroke="#000" stroke-linecap="round" stroke-width="4" d="M-13.488-10.745S-14.761,7.646,6.317,8.589,29.423-9.331,29.423-9.331" data-name="Path 66" transform="translate(116.831 47.653)"/><path id="Path_73" fill="#00ffa9" stroke="#000" stroke-width="3" d="M13026.932,4749.4c-5.384,0-14.094,1.313-21.535,0s-6.172-8.032-8.229-5.253-2.058,13.307,0,16.371.788-3.085,8.229-4.114,3.4.667,8.787.667" data-name="Path 73" transform="translate(-12995.624 -4715.948)"/><path id="Path_76" d="M1.024,6.105C2.365,6.051,2,3.179,2,2.048S1.565,0,1.024,0,.045.917.045,2.048-.318,6.16,1.024,6.105Z" data-name="Path 76" opacity=".5" transform="matrix(0.966, 0.259, -0.259, 0.966, 301.793, 33.708)"/></g><g id="Group_33" data-name="Group 33" transform="translate(665.71 536.239)"><g id="Path_68-3" fill="#fff" data-name="Path 68"><path stroke="none" d="M 23.6272029876709 43.2632942199707 C 20.6393928527832 43.2632942199707 17.74174308776855 42.678466796875 15.01476287841797 41.5250358581543 C 12.38004302978516 40.41064453125 10.01351261138916 38.81497573852539 7.980913162231445 36.78235626220703 C 5.94830322265625 34.74973678588867 4.352643013000488 32.38318634033203 3.238252878189087 29.74845504760742 C 2.084832906723022 27.02145576477051 1.500002980232239 24.1237850189209 1.500002980232239 21.13595581054688 C 1.500002980232239 15.02305507659912 3.557013034820557 9.462514877319336 7.292122840881348 5.478644847869873 C 11.2610330581665 1.245394945144653 16.83319282531738 -0.9921751022338867 23.40622329711914 -0.9921751022338867 C 23.47557258605957 -0.9921751022338867 23.54670333862305 -0.9919150471687317 23.6163330078125 -0.9914150834083557 C 30.2787036895752 -0.9431350827217102 35.91260147094727 1.302634954452515 39.90895462036133 5.503095149993896 C 41.78656387329102 7.476594924926758 43.24420166015625 9.824404716491699 44.24139404296875 12.48130512237549 C 45.24535369873047 15.15625476837158 45.75440216064453 18.06810569763184 45.75440216064453 21.13595581054688 C 45.75440216064453 24.1237850189209 45.16957473754883 27.02145576477051 44.01615142822266 29.74845504760742 C 42.90176391601562 32.38318634033203 41.30610275268555 34.74973678588867 39.27349472045898 36.78235626220703 C 37.24089431762695 38.81497573852539 34.87436294555664 40.41064453125 32.23964309692383 41.5250358581543 C 29.51266288757324 42.678466796875 26.61501312255859 43.2632942199707 23.6272029876709 43.2632942199707 Z" transform="translate(0 2.492)"/><path stroke="none" d="M 23.40448379516602 0.5078239440917969 C 17.25743293762207 0.5078239440917969 12.06419372558594 2.581546783447266 8.386222839355469 6.504806518554688 C 4.912864685058594 10.20978546142578 3.000003814697266 15.4058952331543 3.000003814697266 21.13595581054688 C 3.000003814697266 23.92195510864258 3.544971466064453 26.62302398681641 4.619762420654297 29.16413497924805 C 5.658523559570312 31.62006378173828 7.146244049072266 33.82634353637695 9.041572570800781 35.72169494628906 C 10.9369010925293 37.61703491210938 13.14317321777344 39.10476684570312 15.59909248352051 40.14353561401367 C 18.14018249511719 41.21832656860352 20.84122276306152 41.7632942199707 23.6272029876709 41.7632942199707 C 26.41317367553711 41.7632942199707 29.11422348022461 41.21832656860352 31.65531158447266 40.14353561401367 C 34.11122131347656 39.10476684570312 36.3174934387207 37.61703491210938 38.21283340454102 35.72169494628906 C 40.10816192626953 33.82634353637695 41.59588241577148 31.62006378173828 42.6346435546875 29.16413497924805 C 43.70943450927734 26.62302398681641 44.25440216064453 23.92195510864258 44.25440216064453 21.13595581054688 C 44.25440216064453 18.24873542785645 43.77753448486328 15.51422500610352 42.83704376220703 13.00838470458984 C 41.91101455688477 10.54108428955078 40.56023406982422 8.363803863525391 38.82222366333008 6.537014007568359 C 35.11306381225586 2.638416290283203 29.85119247436523 0.5538063049316406 23.60549354553223 0.508544921875 C 23.53945350646973 0.5080642700195312 23.47199249267578 0.5078239440917969 23.4049129486084 0.5078239440917969 L 23.40448379516602 0.5078239440917969 M 23.40621757507324 -2.492176055908203 C 23.47915840148926 -2.492172241210938 23.55397033691406 -2.491905212402344 23.6272029876709 -2.491374969482422 C 38.44023132324219 -2.384033203125 47.25440216064453 8.086944580078125 47.25440216064453 21.13595581054688 C 47.25440216064453 34.18497467041016 36.67614364624023 44.7632942199707 23.6272029876709 44.7632942199707 C 10.57825469970703 44.7632942199707 3.814697265625e-06 34.18497467041016 3.814697265625e-06 21.13595581054688 C 3.814697265625e-06 8.151458740234375 8.725513458251953 -2.493011474609375 23.40621757507324 -2.492176055908203 Z" transform="translate(0 2.492)"/></g><ellipse id="Ellipse_20-2" cx="7.793" cy="7.793" data-name="Ellipse 20" rx="7.793" ry="7.793" transform="translate(7.824 17.193)"/><path id="Path_69-2" fill="#fff" d="M2.469,0A2.469,2.469,0,0,0,0,2.469C0,3.832,1.445,5.7,2.469,4.937S4.937,3.832,4.937,2.469A2.469,2.469,0,0,0,2.469,0Z" data-name="Path 69" transform="translate(10.646 21.865)"/></g><g id="Path_54" fill="#fff" data-name="Path 54"><path stroke="none" d="M 23.62727355957031 43.25983810424805 C 20.63945388793945 43.25983810424805 17.74179267883301 42.67500686645508 15.01480388641357 41.52158737182617 C 12.38008308410645 40.40718460083008 10.01354312896729 38.81152725219727 7.980933666229248 36.77890777587891 C 5.94831371307373 34.74629592895508 4.352653503417969 32.37975692749023 3.238253593444824 29.74503707885742 C 2.08483362197876 27.01803588867188 1.500003576278687 24.12038612365723 1.500003576278687 21.1325569152832 C 1.500003576278687 18.20404624938965 2.143223524093628 15.33405685424805 3.411803483963013 12.6023063659668 C 4.611353397369385 10.01918601989746 6.314753532409668 7.664446353912354 8.474673271179199 5.603516578674316 C 10.55178356170654 3.621596336364746 13.02086353302002 1.974666357040405 15.61499309539795 0.8407964110374451 C 18.2719841003418 -0.3205636143684387 20.9783935546875 -0.9382236003875732 23.6590633392334 -0.9950535893440247 C 23.77854347229004 -0.9975836277008057 23.89994430541992 -0.9988636374473572 24.01987266540527 -0.9988636374473572 C 26.64192390441895 -0.9988636374473572 29.29654312133789 -0.4104736149311066 31.91000366210938 0.7499563694000244 C 34.44487380981445 1.875496387481689 36.86640167236328 3.534456491470337 38.91280364990234 5.547476291656494 C 41.02799224853516 7.628166198730469 42.69934463500977 10.0060863494873 43.88043212890625 12.61518669128418 C 45.12400436401367 15.3623161315918 45.75454330444336 18.22796630859375 45.75454330444336 21.1325569152832 C 45.75454330444336 24.12038612365723 45.16971206665039 27.01803588867188 44.01629257202148 29.74503707885742 C 42.90189361572266 32.37975692749023 41.30623245239258 34.74629592895508 39.27362442016602 36.77890777587891 C 37.24100494384766 38.81152725219727 34.87447357177734 40.40718460083008 32.23975372314453 41.52158737182617 C 29.51275444030762 42.67500686645508 26.61510276794434 43.25983810424805 23.62727355957031 43.25983810424805 Z" transform="translate(548.062 539.237)"/><path stroke="none" d="M 24.01987266540527 0.5011367797851562 C 23.91044425964355 0.5011367797851562 23.79972267150879 0.5023078918457031 23.69085311889648 0.5046157836914062 C 21.20718383789062 0.5572547912597656 18.69219398498535 1.132797241210938 16.21575355529785 2.215236663818359 C 13.78055191040039 3.279647827148438 11.4618034362793 4.826564788818359 9.510173797607422 6.688755035400391 C 7.486541748046875 8.619647979736328 5.892475128173828 10.82180595397949 4.772262573242188 13.23407554626465 C 3.596282958984375 15.76644706726074 3.000003814697266 18.42388725280762 3.000003814697266 21.1325569152832 C 3.000003814697266 23.91854667663574 3.544975280761719 26.61960601806641 4.619762420654297 29.16070556640625 C 5.658535003662109 31.61662673950195 7.146244049072266 33.82290649414062 9.041584014892578 35.71824645996094 C 10.93693542480469 37.61358642578125 13.14320373535156 39.1013069152832 15.59912300109863 40.14007568359375 C 18.14022445678711 41.21486663818359 20.84128379821777 41.75983810424805 23.62727355957031 41.75983810424805 C 26.41326332092285 41.75983810424805 29.11431312561035 41.21486663818359 31.65541458129883 40.14007568359375 C 34.11134338378906 39.1013069152832 36.31761169433594 37.61358642578125 38.21295166015625 35.71824645996094 C 40.10829162597656 33.82290649414062 41.59601211547852 31.61662673950195 42.63478469848633 29.16070556640625 C 43.70957183837891 26.61960601806641 44.25454330444336 23.91854667663574 44.25454330444336 21.1325569152832 C 44.25454330444336 18.4427661895752 43.66891479492188 15.78522682189941 42.51392364501953 13.2337760925293 C 41.40933227539062 10.79367637634277 39.84383392333984 8.567417144775391 37.86090469360352 6.616825103759766 C 35.94154357910156 4.728775024414062 33.67326354980469 3.174106597900391 31.30128479003906 2.120895385742188 C 28.88070297241211 1.046096801757812 26.43088340759277 0.5011367797851562 24.01987266540527 0.5011367797851562 M 24.01987648010254 -2.498867034912109 C 35.55987548828125 -2.498867034912109 47.25454330444336 8.229324340820312 47.25454330444336 21.1325569152832 C 47.25454330444336 34.18154525756836 36.67625427246094 44.75983810424805 23.62727355957031 44.75983810424805 C 10.57828521728516 44.75983810424805 3.814697265625e-06 34.18154525756836 3.814697265625e-06 21.1325569152832 C 3.814697265625e-06 8.083576202392578 11.9620246887207 -2.247444152832031 23.62727355957031 -2.494712829589844 C 23.757568359375 -2.497474670410156 23.88952445983887 -2.498867034912109 24.01987648010254 -2.498867034912109 Z" transform="translate(548.062 539.237)"/></g><ellipse id="Ellipse_19" cx="7.793" cy="7.793" data-name="Ellipse 19" rx="7.793" ry="7.793" transform="translate(558.834 558.962)"/><path id="Path_55" fill="#fff" d="M2.469,0A2.469,2.469,0,0,1,4.937,2.469c0,1.363-1.445,3.233-2.469,2.469S0,3.832,0,2.469A2.469,2.469,0,0,1,2.469,0Z" data-name="Path 55" transform="translate(566.661 563.634)"/><path id="Path_150" fill="#002631" d="M19.391,84.285c11.274-.127,21.869-11.95,21.869-3.392S29.706,100.5,19.391,100.5,0,89.451,0,80.893,8.118,84.413,19.391,84.285Z" data-name="Path 150" opacity=".31" transform="translate(566.625 294.115)"/><path id="Path_151" fill="#ffc2c2" d="M6.783.034A16.355,16.355,0,0,0,.048,1.889c-.522.173,3.287,6.506,6.513,6.506s6.508-7.046,5.644-7.374A10.306,10.306,0,0,0,6.783.034Z" data-name="Path 151" transform="translate(593.409 394.83) rotate(180)"/></g></svg>